<?xml version="1.0" standalone="no"?>
  <!DOCTYPE svg PUBLIC "-//W3C//DTD SVG 1.1//EN" "http://www.w3.org/Graphics/SVG/1.1/DTD/svg11.dtd" >
  <svg>
  <metadata>
  Created by font-carrier
  </metadata>
  <defs>
  <font id="TitilliumWeb-Regular" horiz-adv-x="1133" vert-adv-y="1133" >
    <font-face
      
      font-family="Titillium Web"
      
      font-weight="400"
      
      font-stretch="normal"
      
      units-per-em="1000"
      
      ascent="1133"
      
      descent="-388"
      
    />
      <missing-glyph />

      

      
      <glyph glyph-name="uni21" unicode="&#x21;" d="M83 0L83 112L165 112L165 0L83 0M89 228L84 692L163 692L158 228L89 228Z"  horiz-adv-x="247" vert-adv-y="1000"  />

      
      <glyph glyph-name="uni22" unicode="&#x22;" d="M303 470L236 470L232 692L307 692L303 470M137 470L70 470L66 692L141 692L137 470Z"  horiz-adv-x="373" vert-adv-y="1000"  />

      
      <glyph glyph-name="uni23" unicode="&#x23;" d="M536 174L425 174L425 0L357 0L357 174L203 174L203 0L135 0L135 174L24 174L24 238L135 238L135 424L24 424L24 488L135 488L135 666L203 666L203 488L357 488L357 666L425 666L425 488L536 488L536 424L425 424L425 238L536 238L536 174M357 238L357 424L203 424L203 238L357 238Z"  horiz-adv-x="560" vert-adv-y="1000"  />

      
      <glyph glyph-name="uni24" unicode="&#x24;" d="M494 194Q494-9 283-9L268-9L254-124Q203-121 203-117L217-6L74 12L82 73Q159 62 225 58L258 308Q156 332 112.50 369.50Q69 407 69 493Q69 670 281 670Q296 670 304 669L321 798L372 798L355 666L480 651L474 589Q405 597 347 602L317 369Q414 346 454 310Q494 274 494 194M143 497Q143 443 170 420Q197 397 267 380L296 605L286 605Q143 605 143 497M420 189Q420 237 395 260Q370 283 308 298L277 56L279 56Q420 56 420 189Z"  horiz-adv-x="560" vert-adv-y="1000"  />

      
      <glyph glyph-name="uni25" unicode="&#x25;" d="M155-4L360 681L408 665L203-18L155-4M28 532Q28 670 138 670Q248 670 248 532Q248 461 219 426Q190 391 138 391Q86 391 57 426Q28 461 28 532M89 532Q89 442 138.50 442Q188 442 188 532Q188 577 176.50 598Q165 619 138.50 619Q112 619 100.50 598Q89 577 89 532M313 132Q313 269 422.50 269Q532 269 532 131Q532 61 503 25.50Q474-10 422-10Q370-10 341.50 25.50Q313 61 313 132M373 132Q373 41 422 41Q450 41 461 63Q472 85 472 131Q472 177 461 197.50Q450 218 423 218Q396 218 384.50 197.50Q373 177 373 132Z"  horiz-adv-x="560" vert-adv-y="1000"  />

      
      <glyph glyph-name="uni26" unicode="&#x26;" d="M140 554Q140 621 186 661Q232 701 316 701Q400 701 443.50 661Q487 621 487 550.50Q487 480 452 439.50Q417 399 333 360L485 210Q507 274 513 372L586 371Q573 246 540 163L669 41L624-9L503 104Q434-10 294-10Q154-10 98 44Q42 98 42 193.50Q42 289 78.50 333.50Q115 378 197 405Q162 445 151 476Q140 507 140 554M282 58Q405 58 451 148L240 358Q174 337 146 304Q118 271 118 202Q118 58 282 58M215 542Q215 481 260 433L289 405Q358 435 385 464Q412 493 412 544Q412 636 313.50 636Q215 636 215 542Z"  horiz-adv-x="688" vert-adv-y="1000"  />

      
      <glyph glyph-name="uni27" unicode="&#x27;" d="M70 470L67 692L142 692L137 470L70 470Z"  horiz-adv-x="208" vert-adv-y="1000"  />

      
      <glyph glyph-name="uni28" unicode="&#x28;" d="M155-125Q51 109 51 301Q51 397 77 509.50Q103 622 129 686L155 750L227 750Q192 658 162 522.50Q132 387 132 301.50Q132 216 156 109.50Q180 3 204-61L227-125L155-125Z"  horiz-adv-x="264" vert-adv-y="1000"  />

      
      <glyph glyph-name="uni29" unicode="&#x29;" d="M202 431Q213 361 213 283Q213 205 187 98.50Q161-8 135-66L109-125L37-125Q71-45 101.50 85.50Q132 216 132 301.50Q132 387 108.50 499Q85 611 61 680L37 750L109 750Q175 601 202 431Z"  horiz-adv-x="264" vert-adv-y="1000"  />

      
      <glyph glyph-name="uni2a" unicode="&#x2a;" d="M373 511L241 511L282 386L233 371L192 497L85 418L54 458L162 537L56 614L87 656L193 578L234 704L283 688L243 561L373 561L373 511Z"  horiz-adv-x="420" vert-adv-y="1000"  />

      
      <glyph glyph-name="uni2b" unicode="&#x2b;" d="M55 217L55 285L244 285L244 480L314 480L314 285L505 285L505 217L314 217L314 20L244 20L244 217L55 217Z"  horiz-adv-x="560" vert-adv-y="1000"  />

      
      <glyph glyph-name="uni2c" unicode="&#x2c;" d="M34-123L80 107L163 107L96-123L34-123Z"  horiz-adv-x="223" vert-adv-y="1000"  />

      
      <glyph glyph-name="uni2d" unicode="&#x2d;" d="M68 240L68 310L371 310L371 240L68 240Z"  horiz-adv-x="438" vert-adv-y="1000"  />

      
      <glyph glyph-name="uni2e" unicode="&#x2e;" d="M67 0L67 114L149 114L149 0L67 0Z"  horiz-adv-x="216" vert-adv-y="1000"  />

      
      <glyph glyph-name="uni2f" unicode="&#x2f;" d="M32 10L314 708L381 683L99-14L32 10Z"  horiz-adv-x="412" vert-adv-y="1000"  />

      
      <glyph glyph-name="uni30" unicode="&#x30;" d="M279 671Q361 671 412 640Q520 576 520 320Q520 139 460 64.50Q400-10 280-10Q160-10 99.50 63.50Q39 137 39 325.50Q39 514 98.50 592.50Q158 671 279 671M280 602Q223 602 190 578Q119 529 119 319Q119 171 158 114.50Q197 58 280 58Q363 58 402 115Q441 172 441 326.50Q441 481 403.50 541.50Q366 602 280 602Z"  horiz-adv-x="560" vert-adv-y="1000"  />

      
      <glyph glyph-name="uni31" unicode="&#x31;" d="M389 660L389 0L312 0L312 574L142 462L107 520L317 660L389 660Z"  horiz-adv-x="560" vert-adv-y="1000"  />

      
      <glyph glyph-name="uni32" unicode="&#x32;" d="M491 0L69 0L69 65L262 268Q312 320 335 347Q358 374 376.50 411Q395 448 395 485Q395 549 360 575Q325 601 251 601Q186 601 106 584L80 579L74 643Q169 670 270 670Q371 670 422.50 627.50Q474 585 474 493Q474 423 443 371Q412 319 336 246L160 67L491 67L491 0Z"  horiz-adv-x="560" vert-adv-y="1000"  />

      
      <glyph glyph-name="uni33" unicode="&#x33;" d="M72 643Q166 671 273.50 671Q381 671 429 630Q477 589 477 499Q477 453 464.50 432.50Q452 412 444.50 401Q437 390 425 380Q403 363 390 356L379 349Q437 328 465 295.50Q493 263 493 189Q493 88 441.50 39Q390-10 279-10Q191-10 93 10L62 17L69 80Q177 58 271 58Q414 59 414 186Q414 305 278 310L145 310L145 376L278 376Q320 376 359 409.50Q398 443 398 498Q398 553 367 577.50Q336 602 263 602Q183 602 105 587L79 582L72 643Z"  horiz-adv-x="560" vert-adv-y="1000"  />

      
      <glyph glyph-name="uni34" unicode="&#x34;" d="M360 0L360 129L40 129L40 189L228 660L312 660L121 197L360 197L360 403L437 403L437 197L521 197L521 129L437 129L437 0L360 0Z"  horiz-adv-x="560" vert-adv-y="1000"  />

      
      <glyph glyph-name="uni35" unicode="&#x35;" d="M477 660L477 590L156 590L138 375Q215 416 293 416Q503 416 503 221Q503 109 445 50Q387-9 282-9Q198-9 96 13L63 20L72 81Q187 59 265.50 59Q344 59 384 99.50Q424 140 424 213Q424 286 387.50 316.50Q351 347 284 347Q248 347 208.50 337Q169 327 148 317L127 307L74 317L92 660L477 660Z"  horiz-adv-x="560" vert-adv-y="1000"  />

      
      <glyph glyph-name="uni36" unicode="&#x36;" d="M482 590Q392 602 307 602Q222 602 176 543Q130 484 130 374L155 384Q180 393 221.50 403Q263 413 295 413Q517 413 517 208Q517 103 456.50 46.50Q396-10 286-10Q50-10 50 333Q50 506 117.50 588Q185 670 308 670Q389 670 462 658L489 653L482 590M290 344Q256 344 215.50 334.50Q175 325 152 316L129 306Q130 192 167.50 125Q205 58 282 58Q359 58 398 96.50Q437 135 437 205.50Q437 276 398.50 310Q360 344 290 344Z"  horiz-adv-x="560" vert-adv-y="1000"  />

      
      <glyph glyph-name="uni37" unicode="&#x37;" d="M77 590L77 660L487 660L487 559L233-10L160 13L409 564L409 590L77 590Z"  horiz-adv-x="560" vert-adv-y="1000"  />

      
      <glyph glyph-name="uni38" unicode="&#x38;" d="M105.50 627.50Q105.50 627.50 136.75 649.25Q168 671 278 671Q388 671 452.50 627.50Q517 584 517 499Q517 437 492 404.50Q467 372 407 345Q467 318 497 281.50Q527 245 527 179Q527-10 279.50-10Q32-10 32 168Q32 239 59.50 276Q87 313 146 345Q92 372 67.50 406.50Q43 441 43 500Q43 584 105.50 627.50M114 181Q114 60 279.50 60Q445 60 445 187Q445 240 415.50 265.50Q386 291 328 308L223 308Q168 293 141 263.50Q114 234 114 181M435 490Q435 601 280 601Q125 601 125 491Q125 447 149 420Q173 393 223 375L328 375Q382 392 408.50 419Q435 446 435 490Z"  horiz-adv-x="560" vert-adv-y="1000"  />

      
      <glyph glyph-name="uni39" unicode="&#x39;" d="M247 58Q428 58 429 288Q329 250 257 250Q41 250 41 451Q41 552 103 611Q165 670 270 670Q391 670 450 580.50Q509 491 509 317.50Q509 144 442.50 67Q376-10 247-10Q172-10 92 4L66 8L73 70Q163 58 247 58M263 318Q324 318 404 345L430 354Q427 602 270 602Q200 602 160.50 561.50Q121 521 121 451Q121 318 263 318Z"  horiz-adv-x="560" vert-adv-y="1000"  />

      
      <glyph glyph-name="uni3a" unicode="&#x3a;" d="M67 322L67 436L149 436L149 322L67 322M67 0L67 114L149 114L149 0L67 0Z"  horiz-adv-x="217" vert-adv-y="1000"  />

      
      <glyph glyph-name="uni3b" unicode="&#x3b;" d="M93 107L177 107L110-123L48-123L93 107M88 322L88 436L169 436L169 322L88 322Z"  horiz-adv-x="248" vert-adv-y="1000"  />

      
      <glyph glyph-name="uni3c" unicode="&#x3c;" d="M477 409L138 252L477 92L477 13L61 218L61 284L477 487L477 409Z"  horiz-adv-x="560" vert-adv-y="1000"  />

      
      <glyph glyph-name="uni3d" unicode="&#x3d;" d="M64 309L64 378L496 378L496 309L64 309M64 124L64 193L496 193L496 124L64 124Z"  horiz-adv-x="560" vert-adv-y="1000"  />

      
      <glyph glyph-name="uni3e" unicode="&#x3e;" d="M421 252L82 409L82 487L498 284L498 218L82 13L82 92L421 252Z"  horiz-adv-x="560" vert-adv-y="1000"  />

      
      <glyph glyph-name="uni3f" unicode="&#x3f;" d="M406 542Q406 477 388.50 443.50Q371 410 317.50 365.50Q264 321 244 294.50Q224 268 224 236L224 201L161 201Q148 228 148 262Q148 296 171 325.50Q194 355 245 399Q296 443 313 469Q330 495 330 541.50Q330 588 298 611Q266 634 197 634Q153 634 68 616L42 611L37 672Q138 702 204 702Q307 702 356.50 664.50Q406 627 406 542M150 1L150 113L232 113L232 1L150 1Z"  horiz-adv-x="447" vert-adv-y="1000"  />

      
      <glyph glyph-name="uni40" unicode="&#x40;" d="M933 305L933 292Q933 80 866 25Q842 6 817.50 0Q793-6 761.50-6Q730-6 707.50 0Q685 6 673 15Q649 33 640 54Q542-5 466-5Q429-5 401.50 4Q374 13 346 38Q290 88 290 233Q290 378 335.50 441.50Q381 505 493 505Q536 505 590 486L608 479L608 495L683 495L683 304Q683 129 694 96Q699 83 708.50 72Q718 61 729 59Q740 57 767 57Q794 57 812.50 70Q831 83 844 136Q857 189 857 292L857 306Q857 491 775 574Q693 657 502.50 657Q312 657 219.50 562.50Q127 468 127 255.50Q127 43 215-47Q303-137 504-137L647-127L650-194Q556-203 504-203Q388-203 307.50-181Q227-159 168-106Q51-4 51 261Q51 502 166 612.50Q281 723 504 723Q727 723 830 620.50Q933 518 933 305M471 61Q514 61 617 107Q608 161 608 280L608 419Q548 439 505 439Q424 439 395 393Q366 347 366 244Q366 61 471 61Z"  horiz-adv-x="977" vert-adv-y="1000"  />

      
      <glyph glyph-name="uni41" unicode="&#x41;" d="M24 0L214 692L382 692L572 0L496 0L446 178L150 178L100 0L24 0M272 626L167 247L429 247L324 626L272 626Z"  horiz-adv-x="596" vert-adv-y="1000"  />

      
      <glyph glyph-name="uni42" unicode="&#x42;" d="M85 692L336 692Q439 692 490.50 649.50Q542 607 542 516Q542 451 519.50 414.50Q497 378 453 357Q563 319 563 194Q563 90 508 45Q453 0 349 0L85 0L85 692M341 318L162 318L162 68L346 68Q414 68 449.50 96.50Q485 125 485 197Q485 235 470.50 261Q456 287 432 298Q388 318 341 318M333 624L162 624L162 385L340 385Q404 385 433.50 415.50Q463 446 463 507.50Q463 569 431.50 596.50Q400 624 333 624Z"  horiz-adv-x="616" vert-adv-y="1000"  />

      
      <glyph glyph-name="uni43" unicode="&#x43;" d="M503 11Q400-10 318-10Q236-10 185.50 12.50Q135 35 107.50 82.50Q80 130 69.50 191.50Q59 253 59 345Q59 437 69.50 499.50Q80 562 107.50 610Q135 658 185 680Q235 702 315 702Q395 702 503 680L500 615Q399 633 320 633Q210 633 174.50 567.50Q139 502 139 344Q139 265 145.50 217Q152 169 171 130.50Q190 92 226.50 75.50Q263 59 333.50 59Q404 59 500 77L503 11Z"  horiz-adv-x="544" vert-adv-y="1000"  />

      
      <glyph glyph-name="uni44" unicode="&#x44;" d="M332 0L85 0L85 692L332 692Q501 692 556 558Q588 481 588 356Q588 95 458 27Q406 0 332 0M509 356Q509 555 420 604Q384 624 332 624L162 624L162 68L332 68Q509 68 509 356Z"  horiz-adv-x="645" vert-adv-y="1000"  />

      
      <glyph glyph-name="uni45" unicode="&#x45;" d="M85 0L85 692L506 692L506 624L162 624L162 385L446 385L446 318L162 318L162 68L506 68L506 0L85 0Z"  horiz-adv-x="553" vert-adv-y="1000"  />

      
      <glyph glyph-name="uni46" unicode="&#x46;" d="M85 0L85 692L499 692L499 624L162 624L162 354L447 354L447 286L162 286L162 0L85 0Z"  horiz-adv-x="526" vert-adv-y="1000"  />

      
      <glyph glyph-name="uni47" unicode="&#x47;" d="M359 285L359 354L550 354L550 14Q424-10 325-10Q174-10 115.50 77Q57 164 57 345.50Q57 527 115.50 614.50Q174 702 323 702Q416 702 516 682L550 676L547 612Q423 633 332 633Q217 633 177 566.50Q137 500 137 345.50Q137 191 177 124.50Q217 58 331 58Q401 58 474 72L474 285L359 285Z"  horiz-adv-x="616" vert-adv-y="1000"  />

      
      <glyph glyph-name="uni48" unicode="&#x48;" d="M514 0L514 313L162 313L162 0L85 0L85 692L162 692L162 382L514 382L514 692L590 692L590 0L514 0Z"  horiz-adv-x="675" vert-adv-y="1000"  />

      
      <glyph glyph-name="uni49" unicode="&#x49;" d="M85 0L85 692L162 692L162 0L85 0Z"  horiz-adv-x="246" vert-adv-y="1000"  />

      
      <glyph glyph-name="uni4a" unicode="&#x4a;" d="M18-72L18-3Q90-3 110.50 14.50Q131 32 131 106L131 692L207 692L208 95Q208 11 180-28Q157-61 89-69Q62-72 18-72Z"  horiz-adv-x="289" vert-adv-y="1000"  />

      
      <glyph glyph-name="uni4b" unicode="&#x4b;" d="M162 0L85 0L85 692L162 692L162 370L276 374L453 692L541 692L343 344L552 0L461 0L277 306L162 302L162 0Z"  horiz-adv-x="569" vert-adv-y="1000"  />

      
      <glyph glyph-name="uni4c" unicode="&#x4c;" d="M466 0L85 0L85 692L162 692L162 69L466 69L466 0Z"  horiz-adv-x="479" vert-adv-y="1000"  />

      
      <glyph glyph-name="uni4d" unicode="&#x4d;" d="M85 0L85 692L224 692L420 107L616 692L755 692L755 0L678 0L678 610L664 610L463 25L377 25L176 610L162 610L162 0L85 0Z"  horiz-adv-x="840" vert-adv-y="1000"  />

      
      <glyph glyph-name="uni4e" unicode="&#x4e;" d="M85 0L85 692L229 692L494 68L515 68L515 692L591 692L591 0L450 0L181 624L162 624L162 0L85 0Z"  horiz-adv-x="676" vert-adv-y="1000"  />

      
      <glyph glyph-name="uni4f" unicode="&#x4f;" d="M136 343Q136 343 136 267Q136 191 176 124.50Q216 58 330.50 58Q445 58 484.50 123Q524 188 524 341Q524 494 483 564Q442 634 329.50 634Q217 634 176.50 564.50Q136 495 136 343M604 341Q604 341 604 248.50Q604 156 545 73Q486-10 330.50-10Q175-10 116 75Q57 160 57 342.50Q57 525 117 613.50Q177 702 330 702Q483 702 543.50 614Q604 526 604 341Z"  horiz-adv-x="660" vert-adv-y="1000"  />

      
      <glyph glyph-name="uni50" unicode="&#x50;" d="M338 233L162 233L162 0L85 0L85 692L338 692Q451 692 505 637Q559 582 559 469Q559 233 338 233M162 301L337 301Q480 301 480 469Q480 549 446 586.50Q412 624 337 624L162 624L162 301Z"  horiz-adv-x="593" vert-adv-y="1000"  />

      
      <glyph glyph-name="uni51" unicode="&#x51;" d="M330-10Q175-10 116 75Q57 160 57 342.50Q57 525 117 613.50Q177 702 330 702Q483 702 543.50 614Q604 526 604 343Q604 216 578 139.50Q552 63 489 26L574-111L502-145L414-1Q381-10 330-10M136 343Q136 343 136 267Q136 191 176 124.50Q216 58 330.50 58Q445 58 484.50 122.50Q524 187 524 340.50Q524 494 483 564Q442 634 329.50 634Q217 634 176.50 564.50Q136 495 136 343Z"  horiz-adv-x="660" vert-adv-y="1000"  />

      
      <glyph glyph-name="uni52" unicode="&#x52;" d="M162 265L162 0L85 0L85 692L341 692Q451 692 506.50 641Q562 590 562 482Q562 322 435 281L568 0L483 0L358 265L162 265M342 333Q483 333 483 478.50Q483 624 341 624L162 624L162 333L342 333Z"  horiz-adv-x="616" vert-adv-y="1000"  />

      
      <glyph glyph-name="uni53" unicode="&#x53;" d="M276 635Q126 635 126 522Q126 459 160.50 435.50Q195 412 300.50 388.50Q406 365 450 327.50Q494 290 494 204Q494-9 273-9Q200-9 90 8L54 13L62 77Q198 59 269 59Q417 59 417 198Q417 254 384.50 278.50Q352 303 263 320Q146 345 97 384.50Q48 424 48 517Q48 703 271 703Q344 703 446 688L480 683L473 618Q334 635 276 635Z"  horiz-adv-x="542" vert-adv-y="1000"  />

      
      <glyph glyph-name="uni54" unicode="&#x54;" d="M13 623L13 692L513 692L513 623L302 623L302 0L226 0L226 623L13 623Z"  horiz-adv-x="526" vert-adv-y="1000"  />

      
      <glyph glyph-name="uni55" unicode="&#x55;" d="M157 208Q157 58 319 58Q403 58 445.50 93.50Q488 129 488 208L488 692L564 692L564 210Q564 94 502.50 42Q441-10 321-10Q201-10 140.50 42Q80 94 80 210L80 692L157 692L157 208Z"  horiz-adv-x="644" vert-adv-y="1000"  />

      
      <glyph glyph-name="uni56" unicode="&#x56;" d="M478 692L558 692L377 0L205 0L24 692L104 692L263 68L319 68L478 692Z"  horiz-adv-x="582" vert-adv-y="1000"  />

      
      <glyph glyph-name="uni57" unicode="&#x57;" d="M30 692L110 692L228 68L257 68L398 686L488 686L629 68L658 68L776 692L855 692L715 0L574 0L443 591L312 0L171 0L30 692Z"  horiz-adv-x="886" vert-adv-y="1000"  />

      
      <glyph glyph-name="uni58" unicode="&#x58;" d="M106 692L281 396L457 692L540 692L327 341L540 0L453 0L279 287L102 0L19 0L233 339L19 692L106 692Z"  horiz-adv-x="558" vert-adv-y="1000"  />

      
      <glyph glyph-name="uni59" unicode="&#x59;" d="M308 0L231 0L231 291L10 692L97 692L269 368L441 692L528 692L308 291L308 0Z"  horiz-adv-x="538" vert-adv-y="1000"  />

      
      <glyph glyph-name="uni5a" unicode="&#x5a;" d="M43 624L43 692L493 692L493 602L131 88L131 68L493 68L493-1L43-1L43 88L404 602L404 624L43 624Z"  horiz-adv-x="536" vert-adv-y="1000"  />

      
      <glyph glyph-name="uni5b" unicode="&#x5b;" d="M289 749L289 682L155 682L155-56L289-56L289-123L79-123L79 749L289 749Z"  horiz-adv-x="329" vert-adv-y="1000"  />

      
      <glyph glyph-name="uni5c" unicode="&#x5c;" d="M405 14L338-14L30 678L97 707L405 14Z"  horiz-adv-x="436" vert-adv-y="1000"  />

      
      <glyph glyph-name="uni5d" unicode="&#x5d;" d="M40 682L40 749L250 749L250-123L40-123L40-56L174-56L174 682L40 682Z"  horiz-adv-x="329" vert-adv-y="1000"  />

      
      <glyph glyph-name="uni5e" unicode="&#x5e;" d="M421 319L278 586L138 319L58 319L243 660L310 660L501 319L421 319Z"  horiz-adv-x="560" vert-adv-y="1000"  />

      
      <glyph glyph-name="uni5f" unicode="&#x5f;" d="M102-92L530-92L530-158L102-158L102-92Z"  horiz-adv-x="632" vert-adv-y="1000"  />

      
      <glyph glyph-name="uni60" unicode="&#x60;" d="M25 740L241 642L220 591L-1 676L25 740Z"  horiz-adv-x="236" vert-adv-y="1000"  />

      
      <glyph glyph-name="uni61" unicode="&#x61;" d="M425 349L425 93Q428 56 483 49L480-10Q401-10 361 30Q271-10 181-10Q112-10 76 29Q40 68 40 141Q40 214 77 248.50Q114 283 193 291L350 306L350 349Q350 400 328 422Q306 444 268 444Q188 444 102 434L71 431L68 488Q178 510 263 510Q348 510 386.50 471Q425 432 425 349M117 145Q117 53 193 53Q261 53 327 76L350 84L350 249L202 235Q157 231 137 209Q117 187 117 145Z"  horiz-adv-x="501" vert-adv-y="1000"  />

      
      <glyph glyph-name="uni62" unicode="&#x62;" d="M293 510Q394 510 434.50 452.50Q475 395 475 251Q475 107 424.50 48.50Q374-10 239-10Q197-10 100-2L72 1L72 718L146 718L146 475Q222 510 293 510M238 57Q336 57 367.50 101.50Q399 146 399 252Q399 358 374 400.50Q349 443 285 443Q227 443 166 421L146 414L146 62Q211 57 238 57Z"  horiz-adv-x="526" vert-adv-y="1000"  />

      
      <glyph glyph-name="uni63" unicode="&#x63;" d="M259 510Q292 510 371 498L395 495L392 434Q312 443 274 443Q189 443 158.50 402.50Q128 362 128 252.50Q128 143 156.50 100Q185 57 275 57L393 66L396 4Q303-10 257-10Q140-10 95.50 50Q51 110 51 252.50Q51 395 99 452.50Q147 510 259 510Z"  horiz-adv-x="436" vert-adv-y="1000"  />

      
      <glyph glyph-name="uni64" unicode="&#x64;" d="M456 718L456 0L382 0L382 34Q305-10 230-10Q190-10 160 0Q130 10 104 36Q50 90 50 235.50Q50 381 98.50 445.50Q147 510 259 510Q317 510 382 497L382 718L456 718M162 90Q178 71 196 64Q214 57 242.50 57Q271 57 306.50 66.50Q342 76 362 85L382 94L382 433Q318 445 263 445Q187 445 157 396.50Q127 348 127 246Q127 130 162 90Z"  horiz-adv-x="529" vert-adv-y="1000"  />

      
      <glyph glyph-name="uni65" unicode="&#x65;" d="M412 62L441 65L443 6Q329-10 248-10Q140-10 95 52.50Q50 115 50 247Q50 510 259 510Q360 510 410 453.50Q460 397 460 276L456 219L126 219Q126 136 156 96Q186 56 260.50 56Q335 56 412 62M385 279Q385 371 355.50 409Q326 447 259.50 447Q193 447 159.50 407Q126 367 125 279L385 279Z"  horiz-adv-x="505" vert-adv-y="1000"  />

      
      <glyph glyph-name="uni66" unicode="&#x66;" d="M168 435L168 0L93 0L93 435L30 435L30 500L93 500L93 545Q93 651 123 689.50Q153 728 228 728L329 721L328 659Q272 661 235.50 661Q199 661 183.50 637Q168 613 168 544L168 500L313 500L313 435L168 435Z"  horiz-adv-x="331" vert-adv-y="1000"  />

      
      <glyph glyph-name="uni67" unicode="&#x67;" d="M265-235Q145-235 97.50-202.50Q50-170 50-84Q50-43 68-17.50Q86 8 129 40Q101 59 101 109Q101 126 126 172L135 188Q56 224 56 339Q56 510 243 510Q291 510 332 500L347 497L495 501L495 437L400 439Q433 406 433 339Q433 245 386.50 207.50Q340 170 240 170Q213 170 191 174Q173 130 173 117Q173 86 192 78.50Q211 71 307 71Q403 71 445 41Q487 11 487-76Q487-235 265-235M124-78Q124-131 153.50-151.50Q183-172 262.50-172Q342-172 376.50-150Q411-128 411-76.50Q411-25 386-10Q361 5 288 5L180 10Q147-14 135.50-32Q124-50 124-78M131 339Q131 339 131 309.50Q131 280 157.50 255Q184 230 245 230Q306 230 332 255Q358 280 358 339.50Q358 399 332 424Q306 449 245 449Q184 449 157.50 423.50Q131 398 131 339Z"  horiz-adv-x="514" vert-adv-y="1000"  />

      
      <glyph glyph-name="uni68" unicode="&#x68;" d="M147 0L72 0L72 718L147 718L147 472Q227 510 301 510Q401 510 435.50 456Q470 402 470 264L470 0L395 0L395 262Q395 366 374.50 404.50Q354 443 288 443Q225 443 166 420L147 413L147 0Z"  horiz-adv-x="537" vert-adv-y="1000"  />

      
      <glyph glyph-name="uni69" unicode="&#x69;" d="M72 0L72 500L147 500L147 0L72 0M72 613L72 700L147 700L147 613L72 613Z"  horiz-adv-x="219" vert-adv-y="1000"  />

      
      <glyph glyph-name="uni6a" unicode="&#x6a;" d="M73 13L73 500L147 500L147 12Q147-80 114-126Q81-172-19-223L-49-165Q29-120 51-88.50Q73-57 73 13M73 613L73 700L147 700L147 613L73 613Z"  horiz-adv-x="219" vert-adv-y="1000"  />

      
      <glyph glyph-name="uni6b" unicode="&#x6b;" d="M147 0L72 0L72 718L147 718L147 294L225 298L368 500L453 500L290 270L460 0L375 0L226 232L147 229L147 0Z"  horiz-adv-x="479" vert-adv-y="1000"  />

      
      <glyph glyph-name="uni6c" unicode="&#x6c;" d="M78 0L78 718L153 718L153 0L78 0Z"  horiz-adv-x="231" vert-adv-y="1000"  />

      
      <glyph glyph-name="uni6d" unicode="&#x6d;" d="M147 0L72 0L72 500L146 500L146 465Q221 510 292 510Q385 510 422 459Q455 479 507.50 494.50Q560 510 600 510Q700 510 734.50 456.50Q769 403 769 264L769 0L694 0L694 262Q694 366 674 404.50Q654 443 589 443Q556 443 521 433.50Q486 424 467 415L448 406Q461 373 461 260L461 0L386 0L386 258Q386 366 366.50 404.50Q347 443 281 443Q249 443 215.50 433.50Q182 424 164 415L147 406L147 0Z"  horiz-adv-x="836" vert-adv-y="1000"  />

      
      <glyph glyph-name="uni6e" unicode="&#x6e;" d="M147 0L72 0L72 500L146 500L146 465Q227 510 301 510Q401 510 435.50 456Q470 402 470 264L470 0L396 0L396 262Q396 366 375.50 404.50Q355 443 288 443Q256 443 220.50 433.50Q185 424 166 415L147 406L147 0Z"  horiz-adv-x="537" vert-adv-y="1000"  />

      
      <glyph glyph-name="uni6f" unicode="&#x6f;" d="M50 251Q50 251 50 319.50Q50 388 99 449Q148 510 264.50 510Q381 510 429.50 449Q478 388 478 251Q478 114 432 52Q386-10 264-10Q142-10 96 52Q50 114 50 251M127 252.50Q127 252.50 127 197.75Q127 143 153.50 99Q180 55 264.50 55Q349 55 375 98.50Q401 142 401 252Q401 362 372 403.50Q343 445 264.50 445Q186 445 156.50 403.50Q127 362 127 252.50Z"  horiz-adv-x="528" vert-adv-y="1000"  />

      
      <glyph glyph-name="uni70" unicode="&#x70;" d="M72-222L72 500L146 500L146 464Q222 510 296 510Q391 510 434 449.50Q477 389 477 250Q477 111 426.50 50.50Q376-10 259-10Q198-10 147 1L147-222L72-222M285 443Q255 443 220.50 433Q186 423 166 413L147 403L147 66Q218 55 255 55Q336 55 368.50 101Q401 147 401 251Q401 355 371.50 399Q342 443 285 443Z"  horiz-adv-x="527" vert-adv-y="1000"  />

      
      <glyph glyph-name="uni71" unicode="&#x71;" d="M238-10Q137-10 93.50 49Q50 108 50 249Q50 390 102 450Q154 510 286 510L453 500L453-222L379-222L379 23Q309-10 238-10M287 445Q193 445 159.50 398Q126 351 126 248.50Q126 146 153.50 101.50Q181 57 246 57Q304 57 361 79L379 86L379 439Q317 445 287 445Z"  horiz-adv-x="526" vert-adv-y="1000"  />

      
      <glyph glyph-name="uni72" unicode="&#x72;" d="M72 0L72 500L146 500L146 432Q233 492 329 511L329 435Q287 427 241.50 410Q196 393 172 380L147 367L147 0L72 0Z"  horiz-adv-x="346" vert-adv-y="1000"  />

      
      <glyph glyph-name="uni73" unicode="&#x73;" d="M229 443Q120 443 120 367Q120 332 145 317.50Q170 303 259 287.50Q348 272 385 244Q422 216 422 139Q422 62 372.50 26Q323-10 228-10Q166-10 82 4L52 9L56 74Q170 57 228 57Q286 57 316.50 75.50Q347 94 347 137.50Q347 181 321 196.50Q295 212 207 226Q119 240 82 267Q45 294 45 367Q45 440 96.50 475Q148 510 225 510Q286 510 378 496L406 491L404 427Q293 443 229 443Z"  horiz-adv-x="465" vert-adv-y="1000"  />

      
      <glyph glyph-name="uni74" unicode="&#x74;" d="M331 435L172 435L172 196Q172 110 184.50 83Q197 56 244 56L333 62L338 0Q271-11 236-11Q158-11 128 27Q98 65 98 172L98 435L27 435L27 500L98 500L98 653L172 653L172 500L331 500L331 435Z"  horiz-adv-x="351" vert-adv-y="1000"  />

      
      <glyph glyph-name="uni75" unicode="&#x75;" d="M384 500L459 500L459 0L384 0L384 35Q309-10 236-10Q134-10 100.50 43Q67 96 67 239L67 500L142 500L142 240Q142 131 161 94Q180 57 247 57Q280 57 314 66.50Q348 76 366 85L384 94L384 500Z"  horiz-adv-x="531" vert-adv-y="1000"  />

      
      <glyph glyph-name="uni76" unicode="&#x76;" d="M25 500L105 500L222 65L259 65L380 500L457 500L316 0L166 0L25 500Z"  horiz-adv-x="481" vert-adv-y="1000"  />

      
      <glyph glyph-name="uni77" unicode="&#x77;" d="M31 500L106 500L207 65L223 65L342 490L420 490L539 65L556 65L656 500L731 500L612 0L487 0L381 391L275 0L150 0L31 500Z"  horiz-adv-x="762" vert-adv-y="1000"  />

      
      <glyph glyph-name="uni78" unicode="&#x78;" d="M22 500L104 500L226 304L348 500L430 500L271 252L429 0L347 0L226 195L104 0L22 0L179 250L22 500Z"  horiz-adv-x="452" vert-adv-y="1000"  />

      
      <glyph glyph-name="uni79" unicode="&#x79;" d="M25 500L100 500L225 65L258 65L384 500L459 500L251-222L176-222L241 0L167 0L25 500Z"  horiz-adv-x="483" vert-adv-y="1000"  />

      
      <glyph glyph-name="uni7a" unicode="&#x7a;" d="M42 433L42 500L413 500L413 433L133 67L413 67L413 0L42 0L42 67L322 433L42 433Z"  horiz-adv-x="455" vert-adv-y="1000"  />

      
      <glyph glyph-name="uni7b" unicode="&#x7b;" d="M197 575L204 452Q204 388 182.50 359Q161 330 99 312Q160 294 182 263.50Q204 233 204 170L197 54Q197-2 221.50-30.50Q246-59 312-63L310-128Q209-124 166.50-83.50Q124-43 124 47L131 169Q131 212 106 238.50Q81 265 24 281L24 342Q81 355 106 381.50Q131 408 131 451L124 579Q124 671 166.50 711Q209 751 311 755L312 690Q246 686 221.50 658.50Q197 631 197 575Z"  horiz-adv-x="352" vert-adv-y="1000"  />

      
      <glyph glyph-name="uni7c" unicode="&#x7c;" d="M78-222L78 718L152 718L152-222L78-222Z"  horiz-adv-x="230" vert-adv-y="1000"  />

      
      <glyph glyph-name="uni7d" unicode="&#x7d;" d="M155 54L148 170Q148 233 170 263.50Q192 294 253 312Q191 330 169.50 359Q148 388 148 452L155 575Q155 631 130.50 658.50Q106 686 40 690L41 755Q143 751 185.50 711Q228 671 228 579L221 451Q221 408 246 381.50Q271 355 328 342L328 281Q271 265 246 238.50Q221 212 221 169L228 47Q228-43 185.50-83.50Q143-124 42-128L40-63Q106-59 130.50-30.50Q155-2 155 54Z"  horiz-adv-x="352" vert-adv-y="1000"  />

      
      <glyph glyph-name="uni7e" unicode="&#x7e;" d="M379 195Q352 195 276.50 226Q201 257 182.50 257Q164 257 138 245.50Q112 234 95 222L78 210L67 272Q129 325 183 325Q212 325 286.50 294.50Q361 264 380 264Q415 264 468 298L485 310L495 249Q432 195 379 195Z"  horiz-adv-x="560" vert-adv-y="1000"  />

      
      <glyph glyph-name="unia1" unicode="&#xa1;" d="M154 500L154 388L72 388L72 500L154 500M148 272L153-192L74-192L79 272L148 272Z"  horiz-adv-x="228" vert-adv-y="1000"  />

      
      <glyph glyph-name="unia2" unicode="&#xa2;" d="M278-81L278 36Q185 41 143 88Q101 135 101 246Q101 357 144.50 408.50Q188 460 278 465L278 583L343 583L343 462Q382 462 428 453L444 450L441 390Q362 397 312 397Q238 397 208.50 363.50Q179 330 179 248Q179 166 208.50 134.50Q238 103 318 103L442 110L445 49Q385 40 343 38L343-81L278-81Z"  horiz-adv-x="560" vert-adv-y="1000"  />

      
      <glyph glyph-name="unia3" unicode="&#xa3;" d="M445 592Q365 603 318.50 603Q272 603 255 575Q238 547 238 467L238 417L409 417L409 352L238 352L238 66L392 66L469 82L482 18L400 0L80 0L80 66L165 66L165 352L98 352L98 417L165 417L165 472Q165 589 198.50 629.50Q232 670 313 670Q365 670 424 658L446 653L445 592Z"  horiz-adv-x="560" vert-adv-y="1000"  />

      
      <glyph glyph-name="unia4" unicode="&#xa4;" d="M379 101Q333 71 279 71Q225 71 181 101L111 30L58 83L128 153Q99 198 99 251Q99 304 128 351L58 421L111 474L181 403Q225 433 279 433Q333 433 379 403L449 474L502 421L431 351Q461 305 461 251Q461 197 431 153L502 83L449 30L379 101M199 171Q199 171 216 154Q233 137 280 137Q327 137 361 171Q395 205 395 252Q395 299 361 333Q327 367 280 367Q233 367 199 333Q165 299 165 252Q165 205 199 171Z"  horiz-adv-x="560" vert-adv-y="1000"  />

      
      <glyph glyph-name="unia5" unicode="&#xa5;" d="M57 315L57 380L197 380L23 660L109 660L281 390L451 660L537 660L366 380L502 380L502 315L328 315L320 296L320 228L503 228L503 163L320 163L320 0L243 0L243 163L58 163L58 228L243 228L243 296L235 315L57 315Z"  horiz-adv-x="560" vert-adv-y="1000"  />

      
      <glyph glyph-name="unia6" unicode="&#xa6;" d="M80 718L154 718L154 344L80 344L80 718M80 156L154 156L154-222L80-222L80 156Z"  horiz-adv-x="234" vert-adv-y="1000"  />

      
      <glyph glyph-name="unia7" unicode="&#xa7;" d="M418 571Q309 586 253 586Q197 586 168 564Q139 542 139 494Q139 446 169.50 427.50Q200 409 285 393Q370 377 406.50 348Q443 319 443 250.50Q443 182 399 118Q436 86 436 18Q436-150 245-150Q181-150 100-138L70-133L77-70Q186-85 241-85Q364-85 364 14Q364 59 335 74.50Q306 90 218 106.50Q130 123 91 154Q52 185 52 255Q52 294 73 331Q94 368 110 381Q66 413 66 492Q66 651 258 651Q309 651 396 638L422 634L418 571M160 354Q127 299 127 260.50Q127 222 152 203Q177 184 244.50 171.50Q312 159 342 146Q347 153 357 182.50Q367 212 367 248Q367 284 341.50 302Q316 320 251.50 331.50Q187 343 160 354Z"  horiz-adv-x="499" vert-adv-y="1000"  />

      
      <glyph glyph-name="unia8" unicode="&#xa8;" d="M-12 621L-12 711L60 711L60 621L-12 621M188 621L188 711L261 711L261 621L188 621Z"  horiz-adv-x="236" vert-adv-y="1000"  />

      
      <glyph glyph-name="unia9" unicode="&#xa9;" d="M324 161Q324 161 267 161Q210 161 134.50 240Q59 319 59 434.50Q59 550 134 628.50Q209 707 323 707Q437 707 511.50 627.50Q586 548 586 433Q586 318 512 239.50Q438 161 324 161M166 597Q166 597 134.50 563.50Q103 530 103 434Q103 338 165.50 271.50Q228 205 322 205Q416 205 479 271.50Q542 338 542 434Q542 530 479 597Q416 664 322.50 664Q229 664 166 597M326 276Q261 276 235 313.50Q209 351 209 433.50Q209 516 235.50 553.50Q262 591 327 591Q364 591 394 584L404 581L400 528Q362 534 327.50 534Q293 534 281.50 511.50Q270 489 270 435.50Q270 382 282.50 357.50Q295 333 330 333L400 340L404 288Q367 276 326 276Z"  horiz-adv-x="645" vert-adv-y="1000"  />

      
      <glyph glyph-name="uniaa" unicode="&#xaa;" d="M302 560L302 423Q311 412 332 406L330 357Q292 357 276 363Q260 369 247 383Q192 357 146 357Q100 357 77 382Q54 407 54 449Q54 529 150 535L238 541L238 563Q238 585 226 594Q214 603 189 603L74 596L72 644Q141 659 195 659Q249 659 275.50 637Q302 615 302 560M120 450Q120 411 156 411Q185 411 226 424L238 428L238 495L161 490Q139 488 129.50 479Q120 470 120 450Z"  horiz-adv-x="386" vert-adv-y="1000"  />

      
      <glyph glyph-name="uniab" unicode="&#xab;" d="M234 344L110 250L234 145L234 67L45 218L45 278L234 421L234 344M472 344L347 250L472 145L472 67L282 218L282 278L472 421L472 344Z"  horiz-adv-x="539" vert-adv-y="1000"  />

      
      <glyph glyph-name="uniac" unicode="&#xac;" d="M65 342L493 342L493 117L423 117L423 274L65 274L65 342Z"  horiz-adv-x="560" vert-adv-y="1000"  />

      
      <glyph glyph-name="uniae" unicode="&#xae;" d="M324 161Q324 161 267 161Q210 161 134.50 240Q59 319 59 434.50Q59 550 134 628.50Q209 707 323 707Q437 707 511.50 628Q586 549 586 433.50Q586 318 512 239.50Q438 161 324 161M322.50 664Q322.50 664 275.75 664Q229 664 166 597Q103 530 103 434.50Q103 339 166 272Q229 205 322.50 205Q416 205 479 271.50Q542 338 542 434Q542 530 479 597Q416 664 322.50 664M271 389L271 282L213 282L213 585L323 585Q380 585 408.50 563Q437 541 437 497Q437 453 425.50 431.50Q414 410 386 397L441 282L380 282L330 389L271 389M270 538L270 436L329 436Q356 436 368 448Q380 460 380 487Q380 538 318 538L270 538Z"  horiz-adv-x="645" vert-adv-y="1000"  />

      
      <glyph glyph-name="uniaf" unicode="&#xaf;" d="M-14 624L-14 683L261 683L261 624L-14 624Z"  horiz-adv-x="236" vert-adv-y="1000"  />

      
      <glyph glyph-name="unib0" unicode="&#xb0;" d="M177.50 459Q177.50 459 157.75 478.50Q138 498 138 561Q138 624 177.50 663Q217 702 280 702Q343 702 382.50 663Q422 624 422 561Q422 498 382.50 459Q343 420 280 420Q217 420 177.50 459M280 654Q280 654 259.50 654Q239 654 214 628Q189 602 189 560.50Q189 519 214 493.50Q239 468 280 468Q321 468 347 493.50Q373 519 373 560.50Q373 602 347 628Q321 654 280 654Z"  horiz-adv-x="560" vert-adv-y="1000"  />

      
      <glyph glyph-name="unib1" unicode="&#xb1;" d="M55 293L55 361L244 361L244 487L314 487L314 361L505 361L505 293L314 293L314 166L244 166L244 293L55 293M55 106L505 106L505 38L55 38L55 106Z"  horiz-adv-x="560" vert-adv-y="1000"  />

      
      <glyph glyph-name="unib2" unicode="&#xb2;" d="M239 478L30 478L30 533L118 620Q169 669 169 703Q169 740 120 740L35 731L33 788Q92 800 140 800Q235 800 235 709Q235 676 221 651.50Q207 627 174 597L111 536L239 536L239 478Z"  horiz-adv-x="280" vert-adv-y="1000"  />

      
      <glyph glyph-name="unib3" unicode="&#xb3;" d="M136 800Q241 800 241 716Q241 665 202 643Q226 635 237.50 618.50Q249 602 249 565Q249 468 143 468Q100 468 48 476L30 478L34 534Q91 526 137.50 526Q184 526 184 568.50Q184 611 137 611L72 611L72 664L137 664Q151 664 163 677Q175 690 175 708Q175 742 130 742L38 735L34 790Q93 800 136 800Z"  horiz-adv-x="280" vert-adv-y="1000"  />

      
      <glyph glyph-name="unib4" unicode="&#xb4;" d="M26 642L242 740L268 676L47 591L26 642Z"  horiz-adv-x="268" vert-adv-y="1000"  />

      
      <glyph glyph-name="unib5" unicode="&#xb5;" d="M401 500L476 500L476 0L401 0L401 35Q326-10 260.50-10Q195-10 159 7L159-222L84-222L84 500L159 500L159 240Q159 131 178 94Q197 57 264 57Q297 57 331 66.50Q365 76 383 85L401 94L401 500Z"  horiz-adv-x="560" vert-adv-y="1000"  />

      
      <glyph glyph-name="unib6" unicode="&#xb6;" d="M411 0L411 627L295 627L295 0L228 0L228 324L221 324Q140 324 87.50 375Q35 426 35 507Q35 588 88 640Q141 692 222 692L551 692L551 627L479 627L479 0L411 0Z"  horiz-adv-x="593" vert-adv-y="1000"  />

      
      <glyph glyph-name="unib7" unicode="&#xb7;" d="M68 229L68 343L150 343L150 229L68 229Z"  horiz-adv-x="217" vert-adv-y="1000"  />

      
      <glyph glyph-name="unib8" unicode="&#xb8;" d="M221-127Q221-217 128-217Q82-217 54-212L42-210L45-162Q84-165 111-165Q155-165 155-127Q155-93 111-93L69-93L69 1L110 1L110-49Q169-49 195-65Q221-81 221-127Z"  horiz-adv-x="263" vert-adv-y="1000"  />

      
      <glyph glyph-name="unib9" unicode="&#xb9;" d="M193 790L193 478L129 478L129 720L61 673L32 720L133 790L193 790Z"  horiz-adv-x="280" vert-adv-y="1000"  />

      
      <glyph glyph-name="uniba" unicode="&#xba;" d="M53 510Q53 587 87.50 623Q122 659 190.50 659Q259 659 292.50 623Q326 587 326 510Q326 357 191 357Q53 357 53 510M122 509.50Q122 509.50 122 485.25Q122 461 137.50 439.50Q153 418 190.50 418Q228 418 242.50 439.50Q257 461 257 510Q257 559 242.50 578.50Q228 598 190.50 598Q153 598 137.50 578Q122 558 122 509.50Z"  horiz-adv-x="380" vert-adv-y="1000"  />

      
      <glyph glyph-name="unibb" unicode="&#xbb;" d="M429 250L304 344L304 421L494 278L494 218L304 67L304 145L429 250M192 250L67 344L67 421L256 278L256 218L67 67L67 145L192 250Z"  horiz-adv-x="539" vert-adv-y="1000"  />

      
      <glyph glyph-name="unibc" unicode="&#xbc;" d="M198 790L198 478L134 478L134 720L66 673L37 720L138 790L198 790M35 28L427 660L467 634L74 3L35 28M412-100L412-52L271-52L271 2L340 212L410 212L337 6L412 6L417 95L475 95L475 6L502 6L502-52L475-52L475-100L412-100Z"  horiz-adv-x="534" vert-adv-y="1000"  />

      
      <glyph glyph-name="unibd" unicode="&#xbd;" d="M202 790L202 478L138 478L138 720L70 673L41 720L142 790L202 790M33 28L425 660L465 634L72 3L33 28M486-100L277-100L277-45L365 42Q416 91 416 125Q416 162 367 162L282 153L280 210Q339 222 386 222Q482 222 482 131Q482 98 468 73.50Q454 49 421 19L358-42L486-42L486-100Z"  horiz-adv-x="529" vert-adv-y="1000"  />

      
      <glyph glyph-name="unibe" unicode="&#xbe;" d="M155 800Q260 800 260 716Q260 665 221 643Q245 635 256.50 618.50Q268 602 268 565Q268 468 162 468Q119 468 66 476L49 478L53 534Q110 526 156.50 526Q203 526 203 568.50Q203 611 156 611L91 611L91 664L156 664Q170 664 182 677Q194 690 194 708Q194 742 149 742L57 735L53 790Q112 800 155 800M52 28L444 660L484 634L91 3L52 28M429-100L429-52L288-52L288 2L357 212L427 212L354 6L429 6L434 95L492 95L492 6L519 6L519-52L492-52L492-100L429-100Z"  horiz-adv-x="550" vert-adv-y="1000"  />

      
      <glyph glyph-name="unibf" unicode="&#xbf;" d="M38-41Q38 24 55.50 57.50Q73 91 126.50 135.50Q180 180 200 206.50Q220 233 220 265L220 300L283 300Q296 273 296 239Q296 205 273 175.50Q250 146 199 102Q148 58 131 32Q114 6 114-40.50Q114-87 146-110Q178-133 247-133Q300-133 376-116L402-110L407-171Q306-201 240-201Q137-201 87.50-163.50Q38-126 38-41M294 500L294 388L212 388L212 500L294 500Z"  horiz-adv-x="441" vert-adv-y="1000"  />

      
      <glyph glyph-name="unic0" unicode="&#xc0;" d="M24 0L214 692L382 692L572 0L496 0L446 178L150 178L100 0L24 0M272 626L167 247L429 247L324 626L272 626M189 931L405 831L382 778L163 865L189 931Z"  horiz-adv-x="596" vert-adv-y="1000"  />

      
      <glyph glyph-name="unic1" unicode="&#xc1;" d="M24 0L214 692L382 692L572 0L496 0L446 178L150 178L100 0L24 0M272 626L167 247L429 247L324 626L272 626M186 831L402 931L428 865L209 778L186 831Z"  horiz-adv-x="596" vert-adv-y="1000"  />

      
      <glyph glyph-name="unic2" unicode="&#xc2;" d="M24 0L214 692L382 692L572 0L496 0L446 178L150 178L100 0L24 0M272 626L167 247L429 247L324 626L272 626M130 791L264 926L329 926L463 791L379 791L297 871L214 791L130 791Z"  horiz-adv-x="596" vert-adv-y="1000"  />

      
      <glyph glyph-name="unic3" unicode="&#xc3;" d="M24 0L214 692L382 692L572 0L496 0L446 178L150 178L100 0L24 0M272 626L167 247L429 247L324 626L272 626M374 803Q353 803 291 830Q229 857 216 857Q194 857 155 821L142 809L125 865Q144 887 170 905Q196 923 219 923Q242 923 303 896Q364 869 374 869Q394 869 432 904L444 915L462 859Q415 803 374 803Z"  horiz-adv-x="596" vert-adv-y="1000"  />

      
      <glyph glyph-name="unic4" unicode="&#xc4;" d="M24 0L214 692L382 692L572 0L496 0L446 178L150 178L100 0L24 0M272 626L167 247L429 247L324 626L272 626M159 808L159 898L232 898L232 808L159 808M363 808L363 898L435 898L435 808L363 808Z"  horiz-adv-x="596" vert-adv-y="1000"  />

      
      <glyph glyph-name="unic5" unicode="&#xc5;" d="M297 849Q297 849 323 849Q349 849 382 821Q415 793 415 747Q415 701 387 671L572 0L496 0L446 178L150 178L100 0L24 0L208 669Q178 697 178 745Q178 793 211.50 821Q245 849 297 849M272 626L167 247L429 247L324 626L272 626M235 744Q235 700 278 692L315 692Q359 700 359 744Q359 769 342.50 783Q326 797 297 797Q235 797 235 744Z"  horiz-adv-x="596" vert-adv-y="1000"  />

      
      <glyph glyph-name="unic6" unicode="&#xc6;" d="M408 0L408 175L157 175L99 0L20 0L244 696L829 696L829 623L484 623L484 393L769 393L769 320L484 320L484 73L829 73L829 0L408 0M300 623L178 249L408 249L409 623L300 623Z"  horiz-adv-x="876" vert-adv-y="1000"  />

      
      <glyph glyph-name="unic7" unicode="&#xc7;" d="M433-127Q433-217 340-217Q294-217 266-212L254-210L257-162Q296-165 323-165Q367-165 367-127Q367-93 323-93L281-93L281-9Q152 0 105.50 84.50Q59 169 59 344Q59 437 69.50 499.50Q80 562 107.50 610Q135 658 185 680Q235 702 315 702Q395 702 503 680L500 615Q399 633 320 633Q210 633 174.50 567.50Q139 502 139 344Q139 265 145.50 217Q152 169 171 130.50Q190 92 226.50 75.50Q263 59 333.50 59Q404 59 500 77L503 11Q411-9 322-10L322-49Q381-49 407-65Q433-81 433-127Z"  horiz-adv-x="544" vert-adv-y="1000"  />

      
      <glyph glyph-name="unic8" unicode="&#xc8;" d="M85 0L85 692L506 692L506 624L162 624L162 385L446 385L446 318L162 318L162 68L506 68L506 0L85 0M195 931L411 831L388 778L169 865L195 931Z"  horiz-adv-x="553" vert-adv-y="1000"  />

      
      <glyph glyph-name="unic9" unicode="&#xc9;" d="M85 0L85 692L506 692L506 624L162 624L162 385L446 385L446 318L162 318L162 68L506 68L506 0L85 0M176 831L392 931L418 865L199 778L176 831Z"  horiz-adv-x="553" vert-adv-y="1000"  />

      
      <glyph glyph-name="unica" unicode="&#xca;" d="M85 0L85 692L506 692L506 624L162 624L162 385L446 385L446 318L162 318L162 68L506 68L506 0L85 0M127 791L261 926L326 926L460 791L376 791L294 871L211 791L127 791Z"  horiz-adv-x="553" vert-adv-y="1000"  />

      
      <glyph glyph-name="unicb" unicode="&#xcb;" d="M85 0L85 692L506 692L506 624L162 624L162 385L446 385L446 318L162 318L162 68L506 68L506 0L85 0M157 808L157 898L230 898L230 808L157 808M361 808L361 898L433 898L433 808L361 808Z"  horiz-adv-x="553" vert-adv-y="1000"  />

      
      <glyph glyph-name="unicc" unicode="&#xcc;" d="M85 0L85 692L162 692L162 0L85 0M6 931L222 831L199 778L-20 865L6 931Z"  horiz-adv-x="246" vert-adv-y="1000"  />

      
      <glyph glyph-name="unicd" unicode="&#xcd;" d="M85 0L85 692L162 692L162 0L85 0M13 831L229 931L255 865L36 778L13 831Z"  horiz-adv-x="246" vert-adv-y="1000"  />

      
      <glyph glyph-name="unice" unicode="&#xce;" d="M85 0L85 692L162 692L162 0L85 0M-47 791L87 926L152 926L286 791L202 791L120 871L37 791L-47 791Z"  horiz-adv-x="246" vert-adv-y="1000"  />

      
      <glyph glyph-name="unicf" unicode="&#xcf;" d="M85 0L85 692L162 692L162 0L85 0M-15 808L-15 898L58 898L58 808L-15 808M189 808L189 898L261 898L261 808L189 808Z"  horiz-adv-x="246" vert-adv-y="1000"  />

      
      <glyph glyph-name="unid0" unicode="&#xd0;" d="M20 311L20 384L88 384L88 696L335 696Q476 696 533.50 608Q591 520 591 359Q591 97 460 28Q409 0 335 0L88 0L88 311L20 311M511 359Q511 553 422 603Q387 623 335 623L164 623L164 384L322 384L322 311L164 311L164 73L335 73Q511 73 511 359Z"  horiz-adv-x="647" vert-adv-y="1000"  />

      
      <glyph glyph-name="unid1" unicode="&#xd1;" d="M85 0L85 692L229 692L494 68L515 68L515 692L591 692L591 0L450 0L181 624L162 624L162 0L85 0M416 803Q395 803 333 830Q271 857 258 857Q236 857 197 821L184 809L167 865Q186 887 212 905Q238 923 261 923Q284 923 345 896Q406 869 416 869Q436 869 474 904L486 915L504 859Q457 803 416 803Z"  horiz-adv-x="676" vert-adv-y="1000"  />

      
      <glyph glyph-name="unid2" unicode="&#xd2;" d="M136 343Q136 343 136 267Q136 191 176 124.50Q216 58 330.50 58Q445 58 484.50 123Q524 188 524 341Q524 494 483 564Q442 634 329.50 634Q217 634 176.50 564.50Q136 495 136 343M604 341Q604 341 604 248.50Q604 156 545 73Q486-10 330.50-10Q175-10 116 75Q57 160 57 342.50Q57 525 117 613.50Q177 702 330 702Q483 702 543.50 614Q604 526 604 341M227 931L443 831L420 778L201 865L227 931Z"  horiz-adv-x="660" vert-adv-y="1000"  />

      
      <glyph glyph-name="unid3" unicode="&#xd3;" d="M136 343Q136 343 136 267Q136 191 176 124.50Q216 58 330.50 58Q445 58 484.50 123Q524 188 524 341Q524 494 483 564Q442 634 329.50 634Q217 634 176.50 564.50Q136 495 136 343M604 341Q604 341 604 248.50Q604 156 545 73Q486-10 330.50-10Q175-10 116 75Q57 160 57 342.50Q57 525 117 613.50Q177 702 330 702Q483 702 543.50 614Q604 526 604 341M198 831L414 931L440 865L221 778L198 831Z"  horiz-adv-x="660" vert-adv-y="1000"  />

      
      <glyph glyph-name="unid4" unicode="&#xd4;" d="M136 343Q136 343 136 267Q136 191 176 124.50Q216 58 330.50 58Q445 58 484.50 123Q524 188 524 341Q524 494 483 564Q442 634 329.50 634Q217 634 176.50 564.50Q136 495 136 343M604 341Q604 341 604 248.50Q604 156 545 73Q486-10 330.50-10Q175-10 116 75Q57 160 57 342.50Q57 525 117 613.50Q177 702 330 702Q483 702 543.50 614Q604 526 604 341M164 791L298 926L363 926L497 791L413 791L331 871L248 791L164 791Z"  horiz-adv-x="660" vert-adv-y="1000"  />

      
      <glyph glyph-name="unid5" unicode="&#xd5;" d="M136 343Q136 343 136 267Q136 191 176 124.50Q216 58 330.50 58Q445 58 484.50 123Q524 188 524 341Q524 494 483 564Q442 634 329.50 634Q217 634 176.50 564.50Q136 495 136 343M604 341Q604 341 604 248.50Q604 156 545 73Q486-10 330.50-10Q175-10 116 75Q57 160 57 342.50Q57 525 117 613.50Q177 702 330 702Q483 702 543.50 614Q604 526 604 341M408 803Q387 803 325 830Q263 857 250 857Q228 857 189 821L176 809L159 865Q178 887 204 905Q230 923 253 923Q276 923 337 896Q398 869 408 869Q428 869 466 904L478 915L496 859Q449 803 408 803Z"  horiz-adv-x="660" vert-adv-y="1000"  />

      
      <glyph glyph-name="unid6" unicode="&#xd6;" d="M136 343Q136 343 136 267Q136 191 176 124.50Q216 58 330.50 58Q445 58 484.50 123Q524 188 524 341Q524 494 483 564Q442 634 329.50 634Q217 634 176.50 564.50Q136 495 136 343M604 341Q604 341 604 248.50Q604 156 545 73Q486-10 330.50-10Q175-10 116 75Q57 160 57 342.50Q57 525 117 613.50Q177 702 330 702Q483 702 543.50 614Q604 526 604 341M192 808L192 898L265 898L265 808L192 808M396 808L396 898L468 898L468 808L396 808Z"  horiz-adv-x="660" vert-adv-y="1000"  />

      
      <glyph glyph-name="unid7" unicode="&#xd7;" d="M120 459L280 297L441 460L489 412L326 251L489 90L441 42L280 204L119 42L71 90L233 251L71 411L120 459Z"  horiz-adv-x="560" vert-adv-y="1000"  />

      
      <glyph glyph-name="unid8" unicode="&#xd8;" d="M330-10Q261-10 210 7L153-116L96-90L155 36Q102 76 79.50 151Q57 226 57 343Q57 525 117 613.50Q177 702 330 702Q405 702 456 681L512 799L570 775L511 648Q604 570 604 343Q604 156 545 73Q486-10 330-10M330 634Q217 634 176.50 564.50Q136 495 136 330.50Q136 166 188 108L426 615Q388 634 330 634M330 58Q445 58 484.50 123Q524 188 524 349Q524 510 476 574L241 72Q275 58 330 58Z"  horiz-adv-x="660" vert-adv-y="1000"  />

      
      <glyph glyph-name="unid9" unicode="&#xd9;" d="M157 208Q157 58 319 58Q403 58 445.50 93.50Q488 129 488 208L488 692L564 692L564 210Q564 94 502.50 42Q441-10 321-10Q201-10 140.50 42Q80 94 80 210L80 692L157 692L157 208M222 931L438 831L415 778L196 865L222 931Z"  horiz-adv-x="644" vert-adv-y="1000"  />

      
      <glyph glyph-name="unida" unicode="&#xda;" d="M157 208Q157 58 319 58Q403 58 445.50 93.50Q488 129 488 208L488 692L564 692L564 210Q564 94 502.50 42Q441-10 321-10Q201-10 140.50 42Q80 94 80 210L80 692L157 692L157 208M199 831L415 931L441 865L222 778L199 831Z"  horiz-adv-x="644" vert-adv-y="1000"  />

      
      <glyph glyph-name="unidb" unicode="&#xdb;" d="M157 208Q157 58 319 58Q403 58 445.50 93.50Q488 129 488 208L488 692L564 692L564 210Q564 94 502.50 42Q441-10 321-10Q201-10 140.50 42Q80 94 80 210L80 692L157 692L157 208M155 791L289 926L354 926L488 791L404 791L322 871L239 791L155 791Z"  horiz-adv-x="644" vert-adv-y="1000"  />

      
      <glyph glyph-name="unidc" unicode="&#xdc;" d="M157 208Q157 58 319 58Q403 58 445.50 93.50Q488 129 488 208L488 692L564 692L564 210Q564 94 502.50 42Q441-10 321-10Q201-10 140.50 42Q80 94 80 210L80 692L157 692L157 208M184 808L184 898L257 898L257 808L184 808M388 808L388 898L460 898L460 808L388 808Z"  horiz-adv-x="644" vert-adv-y="1000"  />

      
      <glyph glyph-name="unidd" unicode="&#xdd;" d="M308 0L231 0L231 291L10 692L97 692L269 368L441 692L528 692L308 291L308 0M167 831L383 931L409 865L190 778L167 831Z"  horiz-adv-x="538" vert-adv-y="1000"  />

      
      <glyph glyph-name="unide" unicode="&#xde;" d="M337 195Q481 195 481 361Q481 439 446.50 474.50Q412 510 337 510L162 510L162 195L337 195M338 121L162 121L162 0L85 0L85 696L162 696L162 584L338 584Q451 584 505.50 529Q560 474 560 359.50Q560 245 504.50 183Q449 121 338 121Z"  horiz-adv-x="599" vert-adv-y="1000"  />

      
      <glyph glyph-name="unidf" unicode="&#xdf;" d="M147 0L72 0L72 545Q72 646 117.50 687Q163 728 267 728Q371 728 416.50 694Q462 660 462 584Q462 531 443 502.50Q424 474 384 456.50Q344 439 332.50 430Q321 421 321 405.50Q321 390 337.50 377Q354 364 419 332Q484 300 511.50 268Q539 236 539 177Q539 75 493.50 32.50Q448-10 338-10Q288-10 228 1L207 5L210 68Q295 57 332 57Q404 57 432.50 83.50Q461 110 461 158.50Q461 207 440 229Q419 251 354 282Q289 313 266 337Q243 361 243 398.50Q243 436 261.50 456.50Q280 477 319 494Q358 511 371 529.50Q384 548 384 586.50Q384 625 358.50 643Q333 661 266.50 661Q200 661 173.50 635Q147 609 147 536L147 0Z"  horiz-adv-x="574" vert-adv-y="1000"  />

      
      <glyph glyph-name="unie0" unicode="&#xe0;" d="M425 349L425 93Q428 56 483 49L480-10Q401-10 361 30Q271-10 181-10Q112-10 76 29Q40 68 40 141Q40 214 77 248.50Q114 283 193 291L350 306L350 349Q350 400 328 422Q306 444 268 444Q188 444 102 434L71 431L68 488Q178 510 263 510Q348 510 386.50 471Q425 432 425 349M117 145Q117 53 193 53Q261 53 327 76L350 84L350 249L202 235Q157 231 137 209Q117 187 117 145M147 740L363 642L342 591L121 676L147 740Z"  horiz-adv-x="501" vert-adv-y="1000"  />

      
      <glyph glyph-name="unie1" unicode="&#xe1;" d="M425 349L425 93Q428 56 483 49L480-10Q401-10 361 30Q271-10 181-10Q112-10 76 29Q40 68 40 141Q40 214 77 248.50Q114 283 193 291L350 306L350 349Q350 400 328 422Q306 444 268 444Q188 444 102 434L71 431L68 488Q178 510 263 510Q348 510 386.50 471Q425 432 425 349M117 145Q117 53 193 53Q261 53 327 76L350 84L350 249L202 235Q157 231 137 209Q117 187 117 145M118 642L334 740L360 676L139 591L118 642Z"  horiz-adv-x="501" vert-adv-y="1000"  />

      
      <glyph glyph-name="unie2" unicode="&#xe2;" d="M425 349L425 93Q428 56 483 49L480-10Q401-10 361 30Q271-10 181-10Q112-10 76 29Q40 68 40 141Q40 214 77 248.50Q114 283 193 291L350 306L350 349Q350 400 328 422Q306 444 268 444Q188 444 102 434L71 431L68 488Q178 510 263 510Q348 510 386.50 471Q425 432 425 349M117 145Q117 53 193 53Q261 53 327 76L350 84L350 249L202 235Q157 231 137 209Q117 187 117 145M95 592L218 732L269 732L393 592L318 592L245 679L170 592L95 592Z"  horiz-adv-x="501" vert-adv-y="1000"  />

      
      <glyph glyph-name="unie3" unicode="&#xe3;" d="M425 349L425 93Q428 56 483 49L480-10Q401-10 361 30Q271-10 181-10Q112-10 76 29Q40 68 40 141Q40 214 77 248.50Q114 283 193 291L350 306L350 349Q350 400 328 422Q306 444 268 444Q188 444 102 434L71 431L68 488Q178 510 263 510Q348 510 386.50 471Q425 432 425 349M117 145Q117 53 193 53Q261 53 327 76L350 84L350 249L202 235Q157 231 137 209Q117 187 117 145M307 612Q286 612 234.50 635.50Q183 659 170 659Q147 659 108 629L95 619L77 667Q127 719 168 719Q189 719 241 696Q293 673 304 673Q326 673 364 702L376 711L393 663Q347 612 307 612Z"  horiz-adv-x="501" vert-adv-y="1000"  />

      
      <glyph glyph-name="unie4" unicode="&#xe4;" d="M425 349L425 93Q428 56 483 49L480-10Q401-10 361 30Q271-10 181-10Q112-10 76 29Q40 68 40 141Q40 214 77 248.50Q114 283 193 291L350 306L350 349Q350 400 328 422Q306 444 268 444Q188 444 102 434L71 431L68 488Q178 510 263 510Q348 510 386.50 471Q425 432 425 349M117 145Q117 53 193 53Q261 53 327 76L350 84L350 249L202 235Q157 231 137 209Q117 187 117 145M105 621L105 711L177 711L177 621L105 621M305 621L305 711L378 711L378 621L305 621Z"  horiz-adv-x="501" vert-adv-y="1000"  />

      
      <glyph glyph-name="unie5" unicode="&#xe5;" d="M425 349L425 93Q428 56 483 49L480-10Q401-10 361 30Q271-10 181-10Q112-10 76 29Q40 68 40 141Q40 214 77 248.50Q114 283 193 291L350 306L350 349Q350 400 328 422Q306 444 268 444Q188 444 102 434L71 431L68 488Q178 510 263 510Q348 510 386.50 471Q425 432 425 349M117 145Q117 53 193 53Q261 53 327 76L350 84L350 249L202 235Q157 231 137 209Q117 187 117 145M181 571Q181 571 166 586Q151 601 151 645Q151 689 181 719Q211 749 254.50 749Q298 749 328 719Q358 689 358 645Q358 601 328.50 571Q299 541 255 541Q211 541 181 571M255 701Q255 701 243.50 701Q232 701 216 684.50Q200 668 200 644.50Q200 621 216 604.50Q232 588 255 588Q278 588 294 604.50Q310 621 310 644.50Q310 668 294 684.50Q278 701 255 701Z"  horiz-adv-x="501" vert-adv-y="1000"  />

      
      <glyph glyph-name="unie6" unicode="&#xe6;" d="M710 65L739 67L741 6Q628-10 538-10Q448-10 400 44L368 30Q281-10 176-10Q109-10 74.50 29.50Q40 69 40 146Q40 223 81 253.50Q122 284 221 294L350 306L350 347Q350 438 263 438Q197 438 104 430L73 428L70 495Q189 510 267 510Q369 510 402 437Q450 510 554.50 510Q659 510 709 453.50Q759 397 759 276L755 218L425 218Q425 136 455 97Q485 58 546.50 58Q608 58 710 65M188 55Q234 55 293 69.50Q352 84 367 92Q348 143 348 245L202 233Q158 229 137.50 208Q117 187 117 145Q117 55 188 55M425 279L684 279Q684 368 654.50 405.50Q625 443 558.50 443Q492 443 458.50 404Q425 365 425 279Z"  horiz-adv-x="804" vert-adv-y="1000"  />

      
      <glyph glyph-name="unie7" unicode="&#xe7;" d="M360-127Q360-217 267-217Q221-217 192-212L181-210L184-162Q223-165 250-165Q294-165 294-127Q294-93 250-93L208-93L208-7Q120 3 85.50 64Q51 125 51 260Q51 395 99 452.50Q147 510 259 510Q292 510 371 498L395 495L392 434Q312 443 274 443Q189 443 158.50 402.50Q128 362 128 252.50Q128 143 156.50 100Q185 57 275 57L393 66L396 4Q303-10 257-10L249-10L249-49Q308-49 334-65Q360-81 360-127Z"  horiz-adv-x="436" vert-adv-y="1000"  />

      
      <glyph glyph-name="unie8" unicode="&#xe8;" d="M412 62L441 65L443 6Q329-10 248-10Q140-10 95 52.50Q50 115 50 247Q50 510 259 510Q360 510 410 453.50Q460 397 460 276L456 219L126 219Q126 136 156 96Q186 56 260.50 56Q335 56 412 62M385 279Q385 371 355.50 409Q326 447 259.50 447Q193 447 159.50 407Q126 367 125 279L385 279M147 741L363 643L342 592L121 677L147 741Z"  horiz-adv-x="505" vert-adv-y="1000"  />

      
      <glyph glyph-name="unie9" unicode="&#xe9;" d="M412 62L441 65L443 6Q329-10 248-10Q140-10 95 52.50Q50 115 50 247Q50 510 259 510Q360 510 410 453.50Q460 397 460 276L456 219L126 219Q126 136 156 96Q186 56 260.50 56Q335 56 412 62M385 279Q385 371 355.50 409Q326 447 259.50 447Q193 447 159.50 407Q126 367 125 279L385 279M145 642L361 740L387 676L166 591L145 642Z"  horiz-adv-x="505" vert-adv-y="1000"  />

      
      <glyph glyph-name="uniea" unicode="&#xea;" d="M412 62L441 65L443 6Q329-10 248-10Q140-10 95 52.50Q50 115 50 247Q50 510 259 510Q360 510 410 453.50Q460 397 460 276L456 219L126 219Q126 136 156 96Q186 56 260.50 56Q335 56 412 62M385 279Q385 371 355.50 409Q326 447 259.50 447Q193 447 159.50 407Q126 367 125 279L385 279M112 592L235 732L286 732L410 592L335 592L262 679L187 592L112 592Z"  horiz-adv-x="505" vert-adv-y="1000"  />

      
      <glyph glyph-name="unieb" unicode="&#xeb;" d="M412 62L441 65L443 6Q329-10 248-10Q140-10 95 52.50Q50 115 50 247Q50 510 259 510Q360 510 410 453.50Q460 397 460 276L456 219L126 219Q126 136 156 96Q186 56 260.50 56Q335 56 412 62M385 279Q385 371 355.50 409Q326 447 259.50 447Q193 447 159.50 407Q126 367 125 279L385 279M120 621L120 711L192 711L192 621L120 621M320 621L320 711L393 711L393 621L320 621Z"  horiz-adv-x="505" vert-adv-y="1000"  />

      
      <glyph glyph-name="uniec" unicode="&#xec;" d="M72 0L72 500L147 500L147 0L72 0M-34 740L182 642L161 591L-60 676L-34 740Z"  horiz-adv-x="219" vert-adv-y="1000"  />

      
      <glyph glyph-name="unied" unicode="&#xed;" d="M38 642L254 740L280 676L59 591L38 642M72 500L147 500L147 0L72 0L72 500Z"  horiz-adv-x="219" vert-adv-y="1000"  />

      
      <glyph glyph-name="uniee" unicode="&#xee;" d="M72 500L147 500L147 0L72 0L72 500M-42 592L81 732L132 732L256 592L181 592L108 679L33 592L-42 592Z"  horiz-adv-x="219" vert-adv-y="1000"  />

      
      <glyph glyph-name="unief" unicode="&#xef;" d="M72 500L147 500L147 0L72 0L72 500M-31 621L-31 711L41 711L41 621L-31 621M169 621L169 711L242 711L242 621L169 621Z"  horiz-adv-x="219" vert-adv-y="1000"  />

      
      <glyph glyph-name="unif0" unicode="&#xf0;" d="M342 643Q496 545 496 351.50Q496 158 442 74.50Q388-9 265-9Q158-9 100 48.50Q42 106 42 209.50Q42 313 97 371.50Q152 430 252 430Q317 430 392 403L417 394Q410 524 280 601L158 520L125 567L220 631Q166 654 96 672L111 728Q211 708 284 674L385 742L419 695L342 643M418 327Q328 363 260 363Q192 363 156.50 321.50Q121 280 121 210Q121 140 157.50 99.50Q194 59 270.50 59Q347 59 382 118Q417 177 418 327Z"  horiz-adv-x="548" vert-adv-y="1000"  />

      
      <glyph glyph-name="unif1" unicode="&#xf1;" d="M72 0L72 500L146 500L146 465L168 476Q191 488 229.50 499Q268 510 301 510Q401 510 435.50 456Q470 402 470 264Q470 264 470 0L396 0L396 262Q396 366 375.50 404.50Q355 443 285.50 443Q216 443 147 406L147 0L72 0M349 612Q328 612 276.50 635.50Q225 659 212 659Q189 659 150 629L137 619L119 667Q169 719 210 719Q231 719 283 696Q335 673 346 673Q368 673 406 702L418 711L435 663Q389 612 349 612Z"  horiz-adv-x="537" vert-adv-y="1000"  />

      
      <glyph glyph-name="unif2" unicode="&#xf2;" d="M50 251Q50 251 50 319.50Q50 388 99 449Q148 510 264.50 510Q381 510 429.50 449Q478 388 478 251Q478 114 432 52Q386-10 264-10Q142-10 96 52Q50 114 50 251M127 252.50Q127 252.50 127 197.75Q127 143 153.50 99Q180 55 264.50 55Q349 55 375 98.50Q401 142 401 252Q401 362 372 403.50Q343 445 264.50 445Q186 445 156.50 403.50Q127 362 127 252.50M167 740L383 642L362 591L141 676L167 740Z"  horiz-adv-x="528" vert-adv-y="1000"  />

      
      <glyph glyph-name="unif3" unicode="&#xf3;" d="M264.50 510Q264.50 510 322.75 510Q381 510 429.50 449Q478 388 478 251Q478 114 432 52Q386-10 264-10Q142-10 96 52Q50 114 50 251Q50 388 99 449Q148 510 264.50 510M264.50 55Q264.50 55 306.75 55Q349 55 375 98.50Q401 142 401 252Q401 362 372 403.50Q343 445 264.50 445Q186 445 156.50 403.50Q127 362 127 252.50Q127 143 153.50 99Q180 55 264.50 55M154 642L370 740L396 676L175 591L154 642Z"  horiz-adv-x="528" vert-adv-y="1000"  />

      
      <glyph glyph-name="unif4" unicode="&#xf4;" d="M264.50 510Q264.50 510 322.75 510Q381 510 429.50 449Q478 388 478 251Q478 114 432 52Q386-10 264-10Q142-10 96 52Q50 114 50 251Q50 388 99 449Q148 510 264.50 510M264.50 55Q264.50 55 306.75 55Q349 55 375 98.50Q401 142 401 252Q401 362 372 403.50Q343 445 264.50 445Q186 445 156.50 403.50Q127 362 127 252.50Q127 143 153.50 99Q180 55 264.50 55M113 592L236 732L287 732L411 592L336 592L263 679L188 592L113 592Z"  horiz-adv-x="528" vert-adv-y="1000"  />

      
      <glyph glyph-name="unif5" unicode="&#xf5;" d="M264.50 510Q264.50 510 322.75 510Q381 510 429.50 449Q478 388 478 251Q478 114 432 52Q386-10 264-10Q142-10 96 52Q50 114 50 251Q50 388 99 449Q148 510 264.50 510M264.50 55Q264.50 55 306.75 55Q349 55 375 98.50Q401 142 401 252Q401 362 372 403.50Q343 445 264.50 445Q186 445 156.50 403.50Q127 362 127 252.50Q127 143 153.50 99Q180 55 264.50 55M335 612Q314 612 262.50 635.50Q211 659 198 659Q175 659 136 629L123 619L105 667Q155 719 196 719Q217 719 269 696Q321 673 332 673Q354 673 392 702L404 711L421 663Q375 612 335 612Z"  horiz-adv-x="528" vert-adv-y="1000"  />

      
      <glyph glyph-name="unif6" unicode="&#xf6;" d="M264.50 510Q264.50 510 322.75 510Q381 510 429.50 449Q478 388 478 251Q478 114 432 52Q386-10 264-10Q142-10 96 52Q50 114 50 251Q50 388 99 449Q148 510 264.50 510M264.50 55Q264.50 55 306.75 55Q349 55 375 98.50Q401 142 401 252Q401 362 372 403.50Q343 445 264.50 445Q186 445 156.50 403.50Q127 362 127 252.50Q127 143 153.50 99Q180 55 264.50 55M125 621L125 711L197 711L197 621L125 621M325 621L325 711L398 711L398 621L325 621Z"  horiz-adv-x="528" vert-adv-y="1000"  />

      
      <glyph glyph-name="unif7" unicode="&#xf7;" d="M120 281L120 354L177 354L177 402L383 402L383 354L439 354L439 281L120 281M242 30L242 131L317 131L317 30L242 30Z"  horiz-adv-x="560" vert-adv-y="1000"  />

      
      <glyph glyph-name="unif8" unicode="&#xf8;" d="M264 510Q303 510 338 502L381 606L431 587L388 483Q478 433 478 256Q478 114 432 52Q386-10 264-10Q223-10 188-2L145-112L95-94L139 15Q90 42 70 100Q50 158 50 256Q50 388 99 449Q148 510 264 510M264 445Q186 445 156.50 403.50Q127 362 127 272.50Q127 183 135.50 142Q144 101 169 80L314 439Q293 445 264 445M264 55Q349 55 375 98.50Q401 142 401 260.50Q401 379 359 417L213 60Q231 55 264 55Z"  horiz-adv-x="528" vert-adv-y="1000"  />

      
      <glyph glyph-name="unif9" unicode="&#xf9;" d="M384 500L459 500L459 0L384 0L384 35Q309-10 236-10Q134-10 100.50 43Q67 96 67 239L67 500L142 500L142 240Q142 131 161 94Q180 57 247 57Q280 57 314 66.50Q348 76 366 85L384 94L384 500M140 740L356 642L335 591L114 676L140 740Z"  horiz-adv-x="531" vert-adv-y="1000"  />

      
      <glyph glyph-name="unifa" unicode="&#xfa;" d="M459 500L459 0L384 0L384 35L363 24Q342 12 305 1Q268-10 236-10Q134-10 100.50 43Q67 96 67 239Q67 239 67 500L142 500L142 240Q142 131 161 94Q180 57 250.50 57Q321 57 384 94L384 500L459 500M155 642L371 740L397 676L176 591L155 642Z"  horiz-adv-x="531" vert-adv-y="1000"  />

      
      <glyph glyph-name="unifb" unicode="&#xfb;" d="M459 500L459 0L384 0L384 35L363 24Q342 12 305 1Q268-10 236-10Q134-10 100.50 43Q67 96 67 239Q67 239 67 500L142 500L142 240Q142 131 161 94Q180 57 250.50 57Q321 57 384 94L384 500L459 500M105 592L228 732L279 732L403 592L328 592L255 679L180 592L105 592Z"  horiz-adv-x="531" vert-adv-y="1000"  />

      
      <glyph glyph-name="unifc" unicode="&#xfc;" d="M459 500L459 0L384 0L384 35L363 24Q342 12 305 1Q268-10 236-10Q134-10 100.50 43Q67 96 67 239Q67 239 67 500L142 500L142 240Q142 131 161 94Q180 57 250.50 57Q321 57 384 94L384 500L459 500M132 621L132 711L204 711L204 621L132 621M332 621L332 711L405 711L405 621L332 621Z"  horiz-adv-x="531" vert-adv-y="1000"  />

      
      <glyph glyph-name="unifd" unicode="&#xfd;" d="M25 500L100 500L225 65L258 65L384 500L459 500L251-222L176-222L241 0L167 0L25 500M154 642L370 740L396 676L175 591L154 642Z"  horiz-adv-x="483" vert-adv-y="1000"  />

      
      <glyph glyph-name="unife" unicode="&#xfe;" d="M244 55Q338 55 368.50 100.50Q399 146 399 251.50Q399 357 374.50 400Q350 443 286 443Q228 443 166 421L147 414L147 61Q212 55 244 55M293 510Q394 510 435 452.50Q476 395 476 252Q476 109 426.50 49.50Q377-10 248-10L147-3L147-222L72-222L72 718L147 718L147 475Q222 510 293 510Z"  horiz-adv-x="527" vert-adv-y="1000"  />

      
      <glyph glyph-name="uniff" unicode="&#xff;" d="M25 500L100 500L225 65L258 65L384 500L459 500L251-222L176-222L241 0L167 0L25 500M104 621L104 711L176 711L176 621L104 621M304 621L304 711L377 711L377 621L304 621Z"  horiz-adv-x="483" vert-adv-y="1000"  />

      
      <glyph glyph-name="uni0100" unicode="&#x0100;" d="M24 0L214 692L382 692L572 0L496 0L446 178L150 178L100 0L24 0M272 626L167 247L429 247L324 626L272 626M141 812L141 870L452 870L452 812L141 812Z"  horiz-adv-x="596" vert-adv-y="1000"  />

      
      <glyph glyph-name="uni0101" unicode="&#x0101;" d="M425 349L425 93Q428 56 483 49L480-10Q401-10 361 30Q271-10 181-10Q112-10 76 29Q40 68 40 141Q40 214 77 248.50Q114 283 193 291L350 306L350 349Q350 400 328 422Q306 444 268 444Q188 444 102 434L71 431L68 488Q178 510 263 510Q348 510 386.50 471Q425 432 425 349M117 145Q117 53 193 53Q261 53 327 76L350 84L350 249L202 235Q157 231 137 209Q117 187 117 145M112 624L112 683L387 683L387 624L112 624Z"  horiz-adv-x="501" vert-adv-y="1000"  />

      
      <glyph glyph-name="uni0102" unicode="&#x0102;" d="M24 0L214 692L382 692L572 0L496 0L446 178L150 178L100 0L24 0M272 626L167 247L429 247L324 626L272 626M208 918Q209 885 234.50 864Q260 843 296.50 843Q333 843 358 864Q383 885 384 918L454 918Q451 859 408 823Q365 787 296 787Q227 787 184.50 823Q142 859 139 918L208 918Z"  horiz-adv-x="596" vert-adv-y="1000"  />

      
      <glyph glyph-name="uni0103" unicode="&#x0103;" d="M425 347L425 101Q426 62 482 55L480-10Q398-10 361 28L336 18Q311 9 265-0.50Q219-10 176-10Q111-10 75.50 30Q40 70 40 142Q40 214 77 249Q114 284 193 291Q193 291 350 306L350 347Q350 438 263 438Q190 438 72 425L69 490L101 495Q197 510 267 510Q347 510 386 470.50Q425 431 425 347M188 55Q263 55 350 85L350 245L202 233Q117 225 117 145Q117 102 135.50 78.50Q154 55 188 55M169 733Q171 699 192.50 678.50Q214 658 252.50 658Q291 658 313 678.50Q335 699 336 733L413 733Q410 670 367.50 630.50Q325 591 252.50 591Q180 591 137.50 630.50Q95 670 92 733L169 733Z"  horiz-adv-x="503" vert-adv-y="1000"  />

      
      <glyph glyph-name="uni0104" unicode="&#x0104;" d="M494-102Q494-121 505.50-133Q517-145 535-145L585-139L592-197Q547-206 510-206Q473-206 447-182.50Q421-159 421-123.50Q421-88 446-54.50Q471-21 496 1L446 178L150 178L100 0L24 0L214 692L382 692L572 0L564 0Q494-70 494-102M272 626L167 247L429 247L324 626L272 626Z"  horiz-adv-x="596" vert-adv-y="1000"  />

      
      <glyph glyph-name="uni0105" unicode="&#x0105;" d="M425 349L425 93Q428 56 483 49L480-10Q468-10 446-8Q385-72 385-102Q385-121 396.50-133Q408-145 426-145L476-139L483-197Q438-206 401-206Q364-206 338-182.50Q312-159 312-127Q312-95 331-65Q358-22 393 6Q377 14 361 30Q271-10 181-10Q112-10 76 29Q40 68 40 141Q40 214 77 248.50Q114 283 193 291L350 306L350 349Q350 400 328 422Q306 444 268 444Q188 444 102 434L71 431L68 488Q178 510 263 510Q348 510 386.50 471Q425 432 425 349M117 145Q117 53 193 53Q261 53 327 76L350 84L350 249L202 235Q157 231 137 209Q117 187 117 145Z"  horiz-adv-x="500" vert-adv-y="1000"  />

      
      <glyph glyph-name="uni0106" unicode="&#x0106;" d="M503 11Q400-10 318-10Q236-10 185.50 12.50Q135 35 107.50 82.50Q80 130 69.50 191.50Q59 253 59 345Q59 437 69.50 499.50Q80 562 107.50 610Q135 658 185 680Q235 702 315 702Q395 702 503 680L500 615Q399 633 320 633Q210 633 174.50 567.50Q139 502 139 344Q139 265 145.50 217Q152 169 171 130.50Q190 92 226.50 75.50Q263 59 333.50 59Q404 59 500 77L503 11M181 831L397 931L423 865L204 778L181 831Z"  horiz-adv-x="544" vert-adv-y="1000"  />

      
      <glyph glyph-name="uni0107" unicode="&#x0107;" d="M259 510Q292 510 371 498L395 495L392 434Q312 443 274 443Q189 443 158.50 402.50Q128 362 128 252.50Q128 143 156.50 100Q185 57 275 57L393 66L396 4Q303-10 257-10Q140-10 95.50 50Q51 110 51 252.50Q51 395 99 452.50Q147 510 259 510M126 642L342 740L368 676L147 591L126 642Z"  horiz-adv-x="436" vert-adv-y="1000"  />

      
      <glyph glyph-name="uni0108" unicode="&#x0108;" d="M503 11Q400-10 318-10Q236-10 185.50 12.50Q135 35 107.50 82.50Q80 130 69.50 191.50Q59 253 59 345Q59 437 69.50 499.50Q80 562 107.50 610Q135 658 185 680Q235 702 315 702Q395 702 503 680L500 615Q399 633 320 633Q210 633 174.50 567.50Q139 502 139 344Q139 265 145.50 217Q152 169 171 130.50Q190 92 226.50 75.50Q263 59 333.50 59Q404 59 500 77L503 11M144 791L278 926L343 926L477 791L393 791L311 871L228 791L144 791Z"  horiz-adv-x="544" vert-adv-y="1000"  />

      
      <glyph glyph-name="uni0109" unicode="&#x0109;" d="M259 510Q292 510 371 498L395 495L392 434Q312 443 274 443Q189 443 158.50 402.50Q128 362 128 252.50Q128 143 156.50 100Q185 57 275 57L393 66L396 4Q303-10 257-10Q140-10 95.50 50Q51 110 51 252.50Q51 395 99 452.50Q147 510 259 510M83 592L206 732L257 732L381 592L306 592L233 679L158 592L83 592Z"  horiz-adv-x="436" vert-adv-y="1000"  />

      
      <glyph glyph-name="uni010A" unicode="&#x010A;" d="M503 11Q400-10 318-10Q236-10 185.50 12.50Q135 35 107.50 82.50Q80 130 69.50 191.50Q59 253 59 345Q59 437 69.50 499.50Q80 562 107.50 610Q135 658 185 680Q235 702 315 702Q395 702 503 680L500 615Q399 633 320 633Q210 633 174.50 567.50Q139 502 139 344Q139 265 145.50 217Q152 169 171 130.50Q190 92 226.50 75.50Q263 59 333.50 59Q404 59 500 77L503 11M255 798L255 885L329 885L329 798L255 798Z"  horiz-adv-x="544" vert-adv-y="1000"  />

      
      <glyph glyph-name="uni010B" unicode="&#x010B;" d="M259 510Q292 510 371 498L395 495L392 434Q312 443 274 443Q189 443 158.50 402.50Q128 362 128 252.50Q128 143 156.50 100Q185 57 275 57L393 66L396 4Q303-10 257-10Q140-10 95.50 50Q51 110 51 252.50Q51 395 99 452.50Q147 510 259 510M214 609L214 696L288 696L288 609L214 609Z"  horiz-adv-x="436" vert-adv-y="1000"  />

      
      <glyph glyph-name="uni010C" unicode="&#x010C;" d="M503 11Q400-10 318-10Q236-10 185.50 12.50Q135 35 107.50 82.50Q80 130 69.50 191.50Q59 253 59 345Q59 437 69.50 499.50Q80 562 107.50 610Q135 658 185 680Q235 702 315 702Q395 702 503 680L500 615Q399 633 320 633Q210 633 174.50 567.50Q139 502 139 344Q139 265 145.50 217Q152 169 171 130.50Q190 92 226.50 75.50Q263 59 333.50 59Q404 59 500 77L503 11M271 791L137 926L221 926L304 846L386 926L470 926L336 791L271 791Z"  horiz-adv-x="544" vert-adv-y="1000"  />

      
      <glyph glyph-name="uni010D" unicode="&#x010D;" d="M259 510Q292 510 371 498L395 495L392 434Q312 443 274 443Q189 443 158.50 402.50Q128 362 128 252.50Q128 143 156.50 100Q185 57 275 57L393 66L396 4Q303-10 257-10Q140-10 95.50 50Q51 110 51 252.50Q51 395 99 452.50Q147 510 259 510M214 592L91 732L165 732L240 645L314 732L389 732L264 592L214 592Z"  horiz-adv-x="436" vert-adv-y="1000"  />

      
      <glyph glyph-name="uni010E" unicode="&#x010E;" d="M332 0L85 0L85 692L332 692Q501 692 556 558Q588 481 588 356Q588 95 458 27Q406 0 332 0M509 356Q509 555 420 604Q384 624 332 624L162 624L162 68L332 68Q509 68 509 356M262 791L128 926L212 926L295 846L377 926L461 926L327 791L262 791Z"  horiz-adv-x="645" vert-adv-y="1000"  />

      
      <glyph glyph-name="uni010F" unicode="&#x010F;" d="M558 683L632 683L583 476L518 476L558 683M456 718L456 0L382 0L382 34Q305-10 230-10Q190-10 160 0Q130 10 104 36Q50 90 50 235.50Q50 381 98.50 445.50Q147 510 259 510Q317 510 382 497L382 718L456 718M162 90Q178 71 196 64Q214 57 242.50 57Q271 57 306.50 66.50Q342 76 362 85L382 94L382 433Q318 445 263 445Q187 445 157 396.50Q127 348 127 246Q127 130 162 90Z"  horiz-adv-x="575" vert-adv-y="1000"  />

      
      <glyph glyph-name="uni0110" unicode="&#x0110;" d="M20 311L20 384L88 384L88 696L335 696Q476 696 533.50 608Q591 520 591 359Q591 97 460 28Q409 0 335 0L88 0L88 311L20 311M511 359Q511 553 422 603Q387 623 335 623L164 623L164 384L322 384L322 311L164 311L164 73L335 73Q511 73 511 359Z"  horiz-adv-x="647" vert-adv-y="1000"  />

      
      <glyph glyph-name="uni0111" unicode="&#x0111;" d="M456 718L456 688L479 688L479 622L456 622L456 0L382 0L382 34Q305-10 230-10Q190-10 160 0Q130 10 104 36Q50 90 50 235.50Q50 381 98.50 445.50Q147 510 259 510Q317 510 382 497L382 622L188 622L188 688L382 688L382 718L456 718M162 90Q178 71 196 64Q214 57 242.50 57Q271 57 306.50 66.50Q342 76 362 85L382 94L382 433Q318 445 263 445Q187 445 157 396.50Q127 348 127 246Q127 130 162 90Z"  horiz-adv-x="529" vert-adv-y="1000"  />

      
      <glyph glyph-name="uni0112" unicode="&#x0112;" d="M85 0L85 692L506 692L506 624L162 624L162 385L446 385L446 318L162 318L162 68L506 68L506 0L85 0M138 812L138 870L449 870L449 812L138 812Z"  horiz-adv-x="553" vert-adv-y="1000"  />

      
      <glyph glyph-name="uni0113" unicode="&#x0113;" d="M412 62L441 65L443 6Q329-10 248-10Q140-10 95 52.50Q50 115 50 247Q50 510 259 510Q360 510 410 453.50Q460 397 460 276L456 219L126 219Q126 136 156 96Q186 56 260.50 56Q335 56 412 62M385 279Q385 371 355.50 409Q326 447 259.50 447Q193 447 159.50 407Q126 367 125 279L385 279M123 624L123 683L398 683L398 624L123 624Z"  horiz-adv-x="505" vert-adv-y="1000"  />

      
      <glyph glyph-name="uni0114" unicode="&#x0114;" d="M85 0L85 692L506 692L506 624L162 624L162 385L446 385L446 318L162 318L162 68L506 68L506 0L85 0M216 918Q217 885 242.50 864Q268 843 304.50 843Q341 843 366 864Q391 885 392 918L462 918Q459 859 416 823Q373 787 304 787Q235 787 192.50 823Q150 859 147 918L216 918Z"  horiz-adv-x="553" vert-adv-y="1000"  />

      
      <glyph glyph-name="uni0115" unicode="&#x0115;" d="M412 62L441 65L443 6Q329-10 248-10Q140-10 95 52.50Q50 115 50 247Q50 510 259 510Q360 510 410 453.50Q460 397 460 276L456 219L126 219Q126 136 156 96Q186 56 260.50 56Q335 56 412 62M385 279Q385 371 355.50 409Q326 447 259.50 447Q193 447 159.50 407Q126 367 125 279L385 279M169 726Q171 688 194 665Q217 642 256.50 642Q296 642 319 665Q342 688 343 726L405 726Q402 666 362 626Q322 586 256.50 586Q191 586 151 626Q111 666 108 726L169 726Z"  horiz-adv-x="505" vert-adv-y="1000"  />

      
      <glyph glyph-name="uni0116" unicode="&#x0116;" d="M85 0L85 692L506 692L506 624L162 624L162 385L446 385L446 318L162 318L162 68L506 68L506 0L85 0M260 801L260 888L334 888L334 801L260 801Z"  horiz-adv-x="553" vert-adv-y="1000"  />

      
      <glyph glyph-name="uni0117" unicode="&#x0117;" d="M412 62L441 65L443 6Q329-10 248-10Q140-10 95 52.50Q50 115 50 247Q50 510 259 510Q360 510 410 453.50Q460 397 460 276L456 219L126 219Q126 136 156 96Q186 56 260.50 56Q335 56 412 62M385 279Q385 371 355.50 409Q326 447 259.50 447Q193 447 159.50 407Q126 367 125 279L385 279M217 609L217 696L291 696L291 609L217 609Z"  horiz-adv-x="505" vert-adv-y="1000"  />

      
      <glyph glyph-name="uni0118" unicode="&#x0118;" d="M85 0L85 692L506 692L506 624L162 624L162 385L446 385L446 318L162 318L162 68L506 68L506 0L477 0Q407-70 407-102Q407-121 418.50-133Q430-145 448-145L498-139L505-197Q460-206 423-206Q386-206 360-182.50Q334-159 334-123.50Q334-88 358.50-55Q383-22 408 0L85 0Z"  horiz-adv-x="553" vert-adv-y="1000"  />

      
      <glyph glyph-name="uni0119" unicode="&#x0119;" d="M343-102Q343-121 354.50-133Q366-145 384-145L434-139L441-197Q396-206 359-206Q322-206 296-182.50Q270-159 270-114.50Q270-70 338-5Q286-10 248-10Q140-10 95 52.50Q50 115 50 247Q50 510 259 510Q360 510 410 453.50Q460 397 460 276L456 219L126 219Q126 136 156 96Q186 56 257 56Q335 56 412 62L441 65L443 6Q427 4 408 1L414 1Q343-69 343-102M385 279Q385 371 355.50 409Q326 447 259.50 447Q193 447 159.50 407Q126 367 125 279L385 279Z"  horiz-adv-x="506" vert-adv-y="1000"  />

      
      <glyph glyph-name="uni011A" unicode="&#x011A;" d="M85 0L85 692L506 692L506 624L162 624L162 385L446 385L446 318L162 318L162 68L506 68L506 0L85 0M258 791L124 926L208 926L291 846L373 926L457 926L323 791L258 791Z"  horiz-adv-x="553" vert-adv-y="1000"  />

      
      <glyph glyph-name="uni011B" unicode="&#x011B;" d="M412 62L441 65L443 6Q329-10 248-10Q140-10 95 52.50Q50 115 50 247Q50 510 259 510Q360 510 410 453.50Q460 397 460 276L456 219L126 219Q126 136 156 96Q186 56 260.50 56Q335 56 412 62M385 279Q385 371 355.50 409Q326 447 259.50 447Q193 447 159.50 407Q126 367 125 279L385 279M227 592L104 732L178 732L253 645L327 732L402 732L277 592L227 592Z"  horiz-adv-x="505" vert-adv-y="1000"  />

      
      <glyph glyph-name="uni011C" unicode="&#x011C;" d="M359 287L359 356L550 356L550 16Q424-8 325-8Q174-8 115.50 79Q57 166 57 347.50Q57 529 115.50 616.50Q174 704 323 704Q416 704 516 684L550 678L547 614Q423 635 332 635Q217 635 177 568.50Q137 502 137 347.50Q137 193 177 126.50Q217 60 331 60Q401 60 474 74L474 287L359 287M156 788L290 923L355 923L489 788L405 788L323 868L240 788L156 788Z"  horiz-adv-x="616" vert-adv-y="1000"  />

      
      <glyph glyph-name="uni011D" unicode="&#x011D;" d="M265-235Q145-235 97.50-202.50Q50-170 50-84Q50-43 68-17.50Q86 8 129 40Q101 59 101 109Q101 126 126 172L135 188Q56 224 56 339Q56 510 243 510Q291 510 332 500L347 497L495 501L495 437L400 439Q433 406 433 339Q433 245 386.50 207.50Q340 170 240 170Q213 170 191 174Q173 130 173 117Q173 86 192 78.50Q211 71 307 71Q403 71 445 41Q487 11 487-76Q487-235 265-235M124-78Q124-131 153.50-151.50Q183-172 262.50-172Q342-172 376.50-150Q411-128 411-76.50Q411-25 386-10Q361 5 288 5L180 10Q147-14 135.50-32Q124-50 124-78M131 339Q131 339 131 309.50Q131 280 157.50 255Q184 230 245 230Q306 230 332 255Q358 280 358 339.50Q358 399 332 424Q306 449 245 449Q184 449 157.50 423.50Q131 398 131 339M113 592L236 732L287 732L411 592L336 592L263 679L188 592L113 592Z"  horiz-adv-x="514" vert-adv-y="1000"  />

      
      <glyph glyph-name="uni011E" unicode="&#x011E;" d="M359 285L359 354L550 354L550 14Q424-10 325-10Q174-10 115.50 77Q57 164 57 345.50Q57 527 115.50 614.50Q174 702 323 702Q416 702 516 682L550 676L547 612Q423 633 332 633Q217 633 177 566.50Q137 500 137 345.50Q137 191 177 124.50Q217 58 331 58Q401 58 474 72L474 285L359 285M240 918Q241 885 266.50 864Q292 843 328.50 843Q365 843 390 864Q415 885 416 918L486 918Q483 859 440 823Q397 787 328 787Q259 787 216.50 823Q174 859 171 918L240 918Z"  horiz-adv-x="616" vert-adv-y="1000"  />

      
      <glyph glyph-name="uni011F" unicode="&#x011F;" d="M265-235Q145-235 97.50-202.50Q50-170 50-84Q50-43 68-17.50Q86 8 129 40Q101 59 101 109Q101 126 126 172L135 188Q56 224 56 339Q56 510 243 510Q291 510 332 500L347 497L495 501L495 437L400 439Q433 406 433 339Q433 245 386.50 207.50Q340 170 240 170Q213 170 191 174Q173 130 173 117Q173 86 192 78.50Q211 71 307 71Q403 71 445 41Q487 11 487-76Q487-235 265-235M124-78Q124-131 153.50-151.50Q183-172 262.50-172Q342-172 376.50-150Q411-128 411-76.50Q411-25 386-10Q361 5 288 5L180 10Q147-14 135.50-32Q124-50 124-78M131 339Q131 339 131 309.50Q131 280 157.50 255Q184 230 245 230Q306 230 332 255Q358 280 358 339.50Q358 399 332 424Q306 449 245 449Q184 449 157.50 423.50Q131 398 131 339M174 726Q176 688 199 665Q222 642 261.50 642Q301 642 324 665Q347 688 348 726L410 726Q407 666 367 626Q327 586 261.50 586Q196 586 156 626Q116 666 113 726L174 726Z"  horiz-adv-x="514" vert-adv-y="1000"  />

      
      <glyph glyph-name="uni0120" unicode="&#x0120;" d="M359 285L359 354L550 354L550 14Q424-10 325-10Q174-10 115.50 77Q57 164 57 345.50Q57 527 115.50 614.50Q174 702 323 702Q416 702 516 682L550 676L547 612Q423 633 332 633Q217 633 177 566.50Q137 500 137 345.50Q137 191 177 124.50Q217 58 331 58Q401 58 474 72L474 285L359 285M276 801L276 888L350 888L350 801L276 801Z"  horiz-adv-x="616" vert-adv-y="1000"  />

      
      <glyph glyph-name="uni0121" unicode="&#x0121;" d="M265-235Q145-235 97.50-202.50Q50-170 50-84Q50-43 68-17.50Q86 8 129 40Q101 59 101 109Q101 126 126 172L135 188Q56 224 56 339Q56 510 243 510Q291 510 332 500L347 497L495 501L495 437L400 439Q433 406 433 339Q433 245 386.50 207.50Q340 170 240 170Q213 170 191 174Q173 130 173 117Q173 86 192 78.50Q211 71 307 71Q403 71 445 41Q487 11 487-76Q487-235 265-235M124-78Q124-131 153.50-151.50Q183-172 262.50-172Q342-172 376.50-150Q411-128 411-76.50Q411-25 386-10Q361 5 288 5L180 10Q147-14 135.50-32Q124-50 124-78M131 339Q131 339 131 309.50Q131 280 157.50 255Q184 230 245 230Q306 230 332 255Q358 280 358 339.50Q358 399 332 424Q306 449 245 449Q184 449 157.50 423.50Q131 398 131 339M224 609L224 696L298 696L298 609L224 609Z"  horiz-adv-x="514" vert-adv-y="1000"  />

      
      <glyph glyph-name="uni0122" unicode="&#x0122;" d="M359 285L359 354L550 354L550 14Q424-10 325-10Q174-10 115.50 77Q57 164 57 345.50Q57 527 115.50 614.50Q174 702 323 702Q416 702 516 682L550 676L547 612Q423 633 332 633Q217 633 177 566.50Q137 500 137 345.50Q137 191 177 124.50Q217 58 331 58Q401 58 474 72L474 285L359 285M301-78L375-78L325-285L260-285L301-78Z"  horiz-adv-x="616" vert-adv-y="1000"  />

      
      <glyph glyph-name="uni0123" unicode="&#x0123;" d="M307 796L266 589L192 589L242 796L307 796M265-235Q145-235 97.50-202.50Q50-170 50-84Q50-43 68-17.50Q86 8 129 40Q101 59 101 109Q101 126 126 172L135 188Q56 224 56 339Q56 510 243 510Q291 510 332 500L347 497L495 501L495 437L400 439Q433 406 433 339Q433 245 386.50 207.50Q340 170 240 170Q213 170 191 174Q173 130 173 117Q173 86 192 78.50Q211 71 307 71Q403 71 445 41Q487 11 487-76Q487-235 265-235M124-78Q124-131 153.50-151.50Q183-172 262.50-172Q342-172 376.50-150Q411-128 411-76.50Q411-25 386-10Q361 5 288 5L180 10Q147-14 135.50-32Q124-50 124-78M131 339Q131 339 131 309.50Q131 280 157.50 255Q184 230 245 230Q306 230 332 255Q358 280 358 339.50Q358 399 332 424Q306 449 245 449Q184 449 157.50 423.50Q131 398 131 339Z"  horiz-adv-x="514" vert-adv-y="1000"  />

      
      <glyph glyph-name="uni0124" unicode="&#x0124;" d="M514 0L514 313L162 313L162 0L85 0L85 692L162 692L162 382L514 382L514 692L590 692L590 0L514 0M172 791L306 926L371 926L505 791L421 791L339 871L256 791L172 791Z"  horiz-adv-x="675" vert-adv-y="1000"  />

      
      <glyph glyph-name="uni0125" unicode="&#x0125;" d="M147 0L72 0L72 718L147 718L147 472Q227 510 301 510Q401 510 435.50 456Q470 402 470 264L470 0L395 0L395 262Q395 366 374.50 404.50Q354 443 288 443Q225 443 166 420L147 413L147 0M118 774L241 914L292 914L416 774L341 774L268 861L193 774L118 774Z"  horiz-adv-x="537" vert-adv-y="1000"  />

      
      <glyph glyph-name="uni0126" unicode="&#x0126;" d="M15 508L15 573L89 573L89 692L166 692L166 573L518 573L518 692L594 692L594 573L677 573L677 508L594 508L594 0L518 0L518 313L166 313L166 0L89 0L89 508L15 508M166 382L518 382L518 508L166 508L166 382Z"  horiz-adv-x="686" vert-adv-y="1000"  />

      
      <glyph glyph-name="uni0127" unicode="&#x0127;" d="M10 580L10 646L72 646L72 718L147 718L147 646L301 646L301 580L147 580L147 472Q227 510 301 510Q401 510 435.50 456Q470 402 470 264L470 0L395 0L395 262Q395 366 374.50 404.50Q354 443 288 443Q225 443 166 420L147 413L147 0L72 0L72 580L10 580Z"  horiz-adv-x="537" vert-adv-y="1000"  />

      
      <glyph glyph-name="uni0128" unicode="&#x0128;" d="M85 0L85 692L162 692L162 0L85 0M200 803Q178 803 116 830Q54 857 42 857Q19 857-20 821L-33 809L-50 865Q-31 887-5 905Q21 923 43.50 923Q66 923 127.50 896Q189 869 200 869Q219 869 256 904L269 915L287 859Q240 803 200 803Z"  horiz-adv-x="246" vert-adv-y="1000"  />

      
      <glyph glyph-name="uni0129" unicode="&#x0129;" d="M72 500L147 500L147 0L72 0L72 500M183 612Q162 612 110.50 635.50Q59 659 46 659Q23 659-16 629L-29 619L-47 667Q3 719 44 719Q65 719 117 696Q169 673 180 673Q202 673 240 702L252 711L269 663Q223 612 183 612Z"  horiz-adv-x="219" vert-adv-y="1000"  />

      
      <glyph glyph-name="uni012A" unicode="&#x012A;" d="M85 0L85 692L162 692L162 0L85 0M-30 812L-30 870L281 870L281 812L-30 812Z"  horiz-adv-x="246" vert-adv-y="1000"  />

      
      <glyph glyph-name="uni012B" unicode="&#x012B;" d="M72 500L147 500L147 0L72 0L72 500M-28 624L-28 683L247 683L247 624L-28 624Z"  horiz-adv-x="219" vert-adv-y="1000"  />

      
      <glyph glyph-name="uni012C" unicode="&#x012C;" d="M85 0L85 692L162 692L162 0L85 0M69 864Q69 864 81.50 853.50Q94 843 131 843Q168 843 193 864Q218 885 219 918L289 918Q286 859 243 823Q200 787 131 787Q62 787 19.50 823Q-23 859-26 918L43 918Q44 885 69 864Z"  horiz-adv-x="246" vert-adv-y="1000"  />

      
      <glyph glyph-name="uni012D" unicode="&#x012D;" d="M72 500L147 500L147 0L72 0L72 500M22 726Q24 688 47 665Q70 642 109.50 642Q149 642 172 665Q195 688 196 726L258 726Q255 666 215 626Q175 586 109.50 586Q44 586 4 626Q-36 666-39 726L22 726Z"  horiz-adv-x="219" vert-adv-y="1000"  />

      
      <glyph glyph-name="uni012E" unicode="&#x012E;" d="M85 0L85 692L162 692L162 0Q86-69 86-102Q86-121 97.50-133Q109-145 127-145L178-139L185-197Q140-206 103-206Q66-206 40-182.50Q14-159 14-123.50Q14-88 38.50-55Q63-22 88 0L85 0Z"  horiz-adv-x="246" vert-adv-y="1000"  />

      
      <glyph glyph-name="uni012F" unicode="&#x012F;" d="M72 0L72 500L147 500L147 0Q71-68 71-102Q71-121 82.50-133Q94-145 112-145L163-139L170-197Q125-206 88-206Q51-206 25-182.50Q-1-159-1-119Q-1-66 76 0L72 0M72 613L72 700L147 700L147 613L72 613Z"  horiz-adv-x="219" vert-adv-y="1000"  />

      
      <glyph glyph-name="uni0130" unicode="&#x0130;" d="M85 0L85 692L162 692L162 0L85 0M86 801L86 888L160 888L160 801L86 801Z"  horiz-adv-x="246" vert-adv-y="1000"  />

      
      <glyph glyph-name="uni0131" unicode="&#x0131;" d="M72 0L72 500L147 500L147 0L72 0Z"  horiz-adv-x="219" vert-adv-y="1000"  />

      
      <glyph glyph-name="uni0134" unicode="&#x0134;" d="M18-72L18-3Q90-3 110.50 14.50Q131 32 131 106L131 692L207 692L208 95Q208 11 180-28Q157-61 89-69Q62-72 18-72M2 788L136 923L201 923L335 788L251 788L169 868L86 788L2 788Z"  horiz-adv-x="289" vert-adv-y="1000"  />

      
      <glyph glyph-name="uni0135" unicode="&#x0135;" d="M73 13L73 500L147 500L147 12Q147-80 114-126Q81-172-19-223L-49-165Q28-120 50.50-88Q73-56 73 13M-41 592L82 732L133 732L257 592L182 592L109 679L34 592L-41 592Z"  horiz-adv-x="219" vert-adv-y="1000"  />

      
      <glyph glyph-name="uni0136" unicode="&#x0136;" d="M162 0L85 0L85 696L162 696L162 375L275 379L452 696L541 696L343 348L552 0L461 0L277 306L162 302L162 0M264-78L338-78L289-285L224-285L264-78Z"  horiz-adv-x="568" vert-adv-y="1000"  />

      
      <glyph glyph-name="uni0137" unicode="&#x0137;" d="M100-285L140-78L215-78L165-285L100-285M147 0L72 0L72 718L147 718L147 294L225 298L368 500L453 500L290 270L460 0L375 0L226 232L147 229L147 0Z"  horiz-adv-x="479" vert-adv-y="1000"  />

      
      <glyph glyph-name="uni0139" unicode="&#x0139;" d="M466 0L85 0L85 696L162 696L162 74L466 74L466 0M134 831L350 931L376 865L157 778L134 831Z"  horiz-adv-x="479" vert-adv-y="1000"  />

      
      <glyph glyph-name="uni013A" unicode="&#x013A;" d="M78 0L78 718L153 718L153 0L78 0M52 846L268 944L294 880L73 795L52 846Z"  horiz-adv-x="231" vert-adv-y="1000"  />

      
      <glyph glyph-name="uni013B" unicode="&#x013B;" d="M241-78L315-78L265-285L200-285L241-78M466 0L85 0L85 692L162 692L162 69L466 69L466 0Z"  horiz-adv-x="479" vert-adv-y="1000"  />

      
      <glyph glyph-name="uni013C" unicode="&#x013C;" d="M78 0L78 718L153 718L153 0L78 0M74-78L148-78L98-285L33-285L74-78Z"  horiz-adv-x="231" vert-adv-y="1000"  />

      
      <glyph glyph-name="uni013D" unicode="&#x013D;" d="M439 696L439 462L366 462L366 696L439 696M466 0L85 0L85 692L162 692L162 69L466 69L466 0Z"  horiz-adv-x="494" vert-adv-y="1000"  />

      
      <glyph glyph-name="uni013E" unicode="&#x013E;" d="M255 683L329 683L280 476L214 476L255 683M78 0L78 718L153 718L153 0L78 0Z"  horiz-adv-x="270" vert-adv-y="1000"  />

      
      <glyph glyph-name="uni0141" unicode="&#x0141;" d="M471 0L90 0L90 272L33 232L-4 284L90 350L90 692L167 692L167 404L309 503L346 452L167 326L167 69L471 69L471 0Z"  horiz-adv-x="483" vert-adv-y="1000"  />

      
      <glyph glyph-name="uni0142" unicode="&#x0142;" d="M114 0L114 279L47 232L10 284L114 357L114 718L189 718L189 409L263 461L300 409L189 331L189 0L114 0Z"  horiz-adv-x="310" vert-adv-y="1000"  />

      
      <glyph glyph-name="uni0143" unicode="&#x0143;" d="M85 0L85 692L229 692L494 68L515 68L515 692L591 692L591 0L450 0L181 624L162 624L162 0L85 0M220 831L436 931L462 865L243 778L220 831Z"  horiz-adv-x="676" vert-adv-y="1000"  />

      
      <glyph glyph-name="uni0144" unicode="&#x0144;" d="M72 0L72 500L146 500L146 465L168 476Q191 488 229.50 499Q268 510 301 510Q401 510 435.50 456Q470 402 470 264Q470 264 470 0L396 0L396 262Q396 366 375.50 404.50Q355 443 285.50 443Q216 443 147 406L147 0L72 0M160 642L376 740L402 676L181 591L160 642Z"  horiz-adv-x="537" vert-adv-y="1000"  />

      
      <glyph glyph-name="uni0145" unicode="&#x0145;" d="M324-78L398-78L348-285L283-285L324-78M85 0L85 692L229 692L494 68L515 68L515 692L591 692L591 0L450 0L181 624L162 624L162 0L85 0Z"  horiz-adv-x="676" vert-adv-y="1000"  />

      
      <glyph glyph-name="uni0146" unicode="&#x0146;" d="M127-285L168-78L242-78L193-285L127-285M147 0L72 0L72 500L146 500L146 465Q227 510 301 510Q401 510 435.50 456Q470 402 470 264L470 0L396 0L396 262Q396 366 375.50 404.50Q355 443 288 443Q256 443 220.50 433.50Q185 424 166 415L147 406L147 0Z"  horiz-adv-x="537" vert-adv-y="1000"  />

      
      <glyph glyph-name="uni0147" unicode="&#x0147;" d="M85 0L85 692L229 692L494 68L515 68L515 692L591 692L591 0L450 0L181 624L162 624L162 0L85 0M306 788L172 923L256 923L339 843L421 923L505 923L371 788L306 788Z"  horiz-adv-x="676" vert-adv-y="1000"  />

      
      <glyph glyph-name="uni0148" unicode="&#x0148;" d="M147 0L72 0L72 500L146 500L146 465Q227 510 301 510Q401 510 435.50 456Q470 402 470 264L470 0L396 0L396 262Q396 366 375.50 404.50Q355 443 288 443Q256 443 220.50 433.50Q185 424 166 415L147 406L147 0M242 592L119 732L193 732L268 645L342 732L417 732L292 592L242 592Z"  horiz-adv-x="537" vert-adv-y="1000"  />

      
      <glyph glyph-name="uni014A" unicode="&#x014A;" d="M85 0L85 692L229 692L494 68L515 68L515 692L591 692L591 575L592-22Q592-106 564-146Q541-178 473-186Q446-189 402-189L402-120Q474-120 494.50-102.50Q515-85 515-11L515 0L450 0L181 624L162 624L162 0L85 0Z"  horiz-adv-x="676" vert-adv-y="1000"  />

      
      <glyph glyph-name="uni014B" unicode="&#x014B;" d="M146 0L72 0L72 500L146 500L146 467Q233 510 304 510Q400 510 435.50 452.50Q471 395 471 260L471-2Q471-95 440-140Q409-185 310-237L278-174Q353-131 374.50-100Q396-69 396-4L396 259Q396 359 375.50 400.50Q355 442 292 442Q263 442 226.50 433Q190 424 168 414L146 405L146 0Z"  horiz-adv-x="538" vert-adv-y="1000"  />

      
      <glyph glyph-name="uni014C" unicode="&#x014C;" d="M136 343Q136 343 136 267Q136 191 176 124.50Q216 58 330.50 58Q445 58 484.50 123Q524 188 524 341Q524 494 483 564Q442 634 329.50 634Q217 634 176.50 564.50Q136 495 136 343M604 341Q604 341 604 248.50Q604 156 545 73Q486-10 330.50-10Q175-10 116 75Q57 160 57 342.50Q57 525 117 613.50Q177 702 330 702Q483 702 543.50 614Q604 526 604 341M174 812L174 870L485 870L485 812L174 812Z"  horiz-adv-x="660" vert-adv-y="1000"  />

      
      <glyph glyph-name="uni014D" unicode="&#x014D;" d="M264.50 510Q264.50 510 322.75 510Q381 510 429.50 449Q478 388 478 251Q478 114 432 52Q386-10 264-10Q142-10 96 52Q50 114 50 251Q50 388 99 449Q148 510 264.50 510M264.50 55Q264.50 55 306.75 55Q349 55 375 98.50Q401 142 401 252Q401 362 372 403.50Q343 445 264.50 445Q186 445 156.50 403.50Q127 362 127 252.50Q127 143 153.50 99Q180 55 264.50 55M128 636L128 695L403 695L403 636L128 636Z"  horiz-adv-x="528" vert-adv-y="1000"  />

      
      <glyph glyph-name="uni014E" unicode="&#x014E;" d="M136 343Q136 343 136 267Q136 191 176 124.50Q216 58 330.50 58Q445 58 484.50 123Q524 188 524 341Q524 494 483 564Q442 634 329.50 634Q217 634 176.50 564.50Q136 495 136 343M604 341Q604 341 604 248.50Q604 156 545 73Q486-10 330.50-10Q175-10 116 75Q57 160 57 342.50Q57 525 117 613.50Q177 702 330 702Q483 702 543.50 614Q604 526 604 341M269 864Q269 864 281.50 853.50Q294 843 331 843Q368 843 393 864Q418 885 419 918L489 918Q486 859 443 823Q400 787 331 787Q262 787 219.50 823Q177 859 174 918L243 918Q244 885 269 864Z"  horiz-adv-x="660" vert-adv-y="1000"  />

      
      <glyph glyph-name="uni014F" unicode="&#x014F;" d="M264.50 510Q264.50 510 322.75 510Q381 510 429.50 449Q478 388 478 251Q478 114 432 52Q386-10 264-10Q142-10 96 52Q50 114 50 251Q50 388 99 449Q148 510 264.50 510M264.50 55Q264.50 55 306.75 55Q349 55 375 98.50Q401 142 401 252Q401 362 372 403.50Q343 445 264.50 445Q186 445 156.50 403.50Q127 362 127 252.50Q127 143 153.50 99Q180 55 264.50 55M179 726Q181 688 204 665Q227 642 266.50 642Q306 642 329 665Q352 688 353 726L415 726Q412 666 372 626Q332 586 266.50 586Q201 586 161 626Q121 666 118 726L179 726Z"  horiz-adv-x="528" vert-adv-y="1000"  />

      
      <glyph glyph-name="uni0150" unicode="&#x0150;" d="M136 343Q136 343 136 267Q136 191 176 124.50Q216 58 330.50 58Q445 58 484.50 123Q524 188 524 341Q524 494 483 564Q442 634 329.50 634Q217 634 176.50 564.50Q136 495 136 343M604 341Q604 341 604 248.50Q604 156 545 73Q486-10 330.50-10Q175-10 116 75Q57 160 57 342.50Q57 525 117 613.50Q177 702 330 702Q483 702 543.50 614Q604 526 604 341M348 785L490 916L545 881L399 752L348 785M151 785L293 917L347 882L202 753L151 785Z"  horiz-adv-x="660" vert-adv-y="1000"  />

      
      <glyph glyph-name="uni0151" unicode="&#x0151;" d="M264.50 510Q264.50 510 322.75 510Q381 510 429.50 449Q478 388 478 251Q478 114 432 52Q386-10 264-10Q142-10 96 52Q50 114 50 251Q50 388 99 449Q148 510 264.50 510M264.50 55Q264.50 55 306.75 55Q349 55 375 98.50Q401 142 401 252Q401 362 372 403.50Q343 445 264.50 445Q186 445 156.50 403.50Q127 362 127 252.50Q127 143 153.50 99Q180 55 264.50 55M286 624L431 763L485 720L337 582L286 624M93 624L238 762L292 720L145 582L93 624Z"  horiz-adv-x="528" vert-adv-y="1000"  />

      
      <glyph glyph-name="uni0152" unicode="&#x0152;" d="M878-1L465-1Q373-10 322-10Q169-10 113 74.50Q57 159 57 346.50Q57 534 115 620Q173 706 322 706Q401 706 463 696L878 696L878 622L539 622L539 393L818 393L818 319L539 319L539 74L878 74L878-1M332 65Q384 65 463 72L463 622Q358 631 330 631Q217 631 177 566Q137 501 137 346.50Q137 192 176 128.50Q215 65 332 65Z"  horiz-adv-x="925" vert-adv-y="1000"  />

      
      <glyph glyph-name="uni0153" unicode="&#x0153;" d="M763 65L792 67L794 6Q681-10 600-10Q481-10 438 81Q416 33 375 11.50Q334-10 265-10Q142-10 96 52Q50 114 50 251.50Q50 389 99.50 449.50Q149 510 265 510Q333 510 375.50 485.50Q418 461 441 405Q486 510 611 510Q712 510 762 453.50Q812 397 812 276L808 218L478 218Q478 136 508 97Q538 58 600 58Q662 58 763 65M127 253.50Q127 253.50 127 199.75Q127 146 154 101.50Q181 57 264.50 57Q348 57 374.50 102Q401 147 401 251Q401 355 369.50 398.50Q338 442 262 442Q186 442 156.50 401.50Q127 361 127 253.50M477 279L737 279Q737 368 707.50 405.50Q678 443 611 443Q477 443 477 279Z"  horiz-adv-x="857" vert-adv-y="1000"  />

      
      <glyph glyph-name="uni0154" unicode="&#x0154;" d="M162 265L162 0L85 0L85 692L341 692Q451 692 506.50 641Q562 590 562 482Q562 322 435 281L568 0L483 0L358 265L162 265M341 624L162 624L162 333L342 333Q483 333 483 478.50Q483 624 341 624M187 831L403 931L429 865L210 778L187 831Z"  horiz-adv-x="616" vert-adv-y="1000"  />

      
      <glyph glyph-name="uni0155" unicode="&#x0155;" d="M72 0L72 500L146 500L146 432Q233 492 329 511L329 435Q287 427 241.50 410Q196 393 172 380L147 367L147 0L72 0M67 642L283 740L309 676L88 591L67 642Z"  horiz-adv-x="346" vert-adv-y="1000"  />

      
      <glyph glyph-name="uni0156" unicode="&#x0156;" d="M245-285L286-78L360-78L310-285L245-285M162 265L162 0L85 0L85 692L341 692Q451 692 506.50 641Q562 590 562 482Q562 322 435 281L568 0L483 0L358 265L162 265M342 333Q483 333 483 478.50Q483 624 341 624L162 624L162 333L342 333Z"  horiz-adv-x="616" vert-adv-y="1000"  />

      
      <glyph glyph-name="uni0157" unicode="&#x0157;" d="M72-78L146-78L97-285L32-285L72-78M72 0L72 500L146 500L146 432Q233 492 329 511L329 435Q287 427 241.50 410Q196 393 172 380L147 367L147 0L72 0Z"  horiz-adv-x="346" vert-adv-y="1000"  />

      
      <glyph glyph-name="uni0158" unicode="&#x0158;" d="M162 265L162 0L85 0L85 692L341 692Q451 692 506.50 641Q562 590 562 482Q562 322 435 281L568 0L483 0L358 265L162 265M342 333Q483 333 483 478.50Q483 624 341 624L162 624L162 333L342 333M268 791L134 926L218 926L301 846L383 926L467 926L333 791L268 791Z"  horiz-adv-x="616" vert-adv-y="1000"  />

      
      <glyph glyph-name="uni0159" unicode="&#x0159;" d="M72 0L72 500L146 500L146 432Q233 492 329 511L329 435Q287 427 241.50 410Q196 393 172 380L147 367L147 0L72 0M149 592L26 732L100 732L175 645L249 732L324 732L199 592L149 592Z"  horiz-adv-x="346" vert-adv-y="1000"  />

      
      <glyph glyph-name="uni015A" unicode="&#x015A;" d="M276 635Q126 635 126 522Q126 459 160.50 435.50Q195 412 300.50 388.50Q406 365 450 327.50Q494 290 494 204Q494-9 273-9Q200-9 90 8L54 13L62 77Q198 59 269 59Q417 59 417 198Q417 254 384.50 278.50Q352 303 263 320Q146 345 97 384.50Q48 424 48 517Q48 703 271 703Q344 703 446 688L480 683L473 618Q334 635 276 635M163 831L379 931L405 865L186 778L163 831Z"  horiz-adv-x="542" vert-adv-y="1000"  />

      
      <glyph glyph-name="uni015B" unicode="&#x015B;" d="M229 443Q120 443 120 367Q120 332 145 317.50Q170 303 259 287.50Q348 272 385 244Q422 216 422 139Q422 62 372.50 26Q323-10 228-10Q166-10 82 4L52 9L56 74Q170 57 228 57Q286 57 316.50 75.50Q347 94 347 137.50Q347 181 321 196.50Q295 212 207 226Q119 240 82 267Q45 294 45 367Q45 440 96.50 475Q148 510 225 510Q286 510 378 496L406 491L404 427Q293 443 229 443M114 642L330 740L356 676L135 591L114 642Z"  horiz-adv-x="465" vert-adv-y="1000"  />

      
      <glyph glyph-name="uni015C" unicode="&#x015C;" d="M276 635Q126 635 126 522Q126 459 160.50 435.50Q195 412 300.50 388.50Q406 365 450 327.50Q494 290 494 204Q494-9 273-9Q200-9 90 8L54 13L62 77Q198 59 269 59Q417 59 417 198Q417 254 384.50 278.50Q352 303 263 320Q146 345 97 384.50Q48 424 48 517Q48 703 271 703Q344 703 446 688L480 683L473 618Q334 635 276 635M108 788L242 923L307 923L441 788L357 788L275 868L192 788L108 788Z"  horiz-adv-x="542" vert-adv-y="1000"  />

      
      <glyph glyph-name="uni015D" unicode="&#x015D;" d="M229 443Q120 443 120 367Q120 332 145 317.50Q170 303 259 287.50Q348 272 385 244Q422 216 422 139Q422 62 372.50 26Q323-10 228-10Q166-10 82 4L52 9L56 74Q170 57 228 57Q286 57 316.50 75.50Q347 94 347 137.50Q347 181 321 196.50Q295 212 207 226Q119 240 82 267Q45 294 45 367Q45 440 96.50 475Q148 510 225 510Q286 510 378 496L406 491L404 427Q293 443 229 443M85 592L208 732L259 732L383 592L308 592L235 679L160 592L85 592Z"  horiz-adv-x="465" vert-adv-y="1000"  />

      
      <glyph glyph-name="uni015E" unicode="&#x015E;" d="M410-127Q410-217 317-217Q271-217 242-212L231-210L234-162Q273-165 300-165Q344-165 344-127Q344-93 300-93L258-93L258-9Q184-7 86 8L54 13L62 77Q198 59 269 59Q417 59 417 198Q417 254 384.50 278.50Q352 303 263 320Q146 345 97 384.50Q48 424 48 517Q48 703 271 703Q344 703 446 688L480 683L473 618Q334 635 276 635Q126 635 126 522Q126 459 160.50 435.50Q195 412 300.50 388.50Q406 365 450 327.50Q494 290 494 204Q494 5 299-8L299-49Q358-49 384-65Q410-81 410-127Z"  horiz-adv-x="542" vert-adv-y="1000"  />

      
      <glyph glyph-name="uni015F" unicode="&#x015F;" d="M356-127Q356-217 263-217Q217-217 188-212L177-210L180-162Q219-165 246-165Q290-165 290-127Q290-93 246-93L204-93L204-9Q146-7 76 5L52 9L56 74Q170 57 228 57Q286 57 316.50 75.50Q347 94 347 137.50Q347 181 321 196.50Q295 212 207 226Q119 240 82 267Q45 294 45 367Q45 440 96.50 475Q148 510 225 510Q286 510 378 496L406 491L404 427Q293 443 229 443Q120 443 120 367Q120 332 145 317.50Q170 303 259 287.50Q348 272 385 244Q422 216 422 140.50Q422 65 377 29Q332-7 245-10L245-49Q304-49 330-65Q356-81 356-127Z"  horiz-adv-x="465" vert-adv-y="1000"  />

      
      <glyph glyph-name="uni0160" unicode="&#x0160;" d="M276 635Q126 635 126 522Q126 459 160.50 435.50Q195 412 300.50 388.50Q406 365 450 327.50Q494 290 494 204Q494-9 273-9Q200-9 90 8L54 13L62 77Q198 59 269 59Q417 59 417 198Q417 254 384.50 278.50Q352 303 263 320Q146 345 97 384.50Q48 424 48 517Q48 703 271 703Q344 703 446 688L480 683L473 618Q334 635 276 635M250 791L116 926L200 926L283 846L365 926L449 926L315 791L250 791Z"  horiz-adv-x="542" vert-adv-y="1000"  />

      
      <glyph glyph-name="uni0161" unicode="&#x0161;" d="M229 443Q120 443 120 367Q120 332 145 317.50Q170 303 259 287.50Q348 272 385 244Q422 216 422 139Q422 62 372.50 26Q323-10 228-10Q166-10 82 4L52 9L56 74Q170 57 228 57Q286 57 316.50 75.50Q347 94 347 137.50Q347 181 321 196.50Q295 212 207 226Q119 240 82 267Q45 294 45 367Q45 440 96.50 475Q148 510 225 510Q286 510 378 496L406 491L404 427Q293 443 229 443M216 592L93 732L167 732L242 645L316 732L391 732L266 592L216 592Z"  horiz-adv-x="465" vert-adv-y="1000"  />

      
      <glyph glyph-name="uni0163" unicode="&#x0163;" d="M331 435L172 435L172 196Q172 110 184.50 83Q197 56 244 56L333 62L338 0Q271-11 236-11Q158-11 128 27Q98 65 98 172L98 435L27 435L27 500L98 500L98 653L172 653L172 500L331 500L331 435M264-127Q264-217 171-217Q125-217 96-212L85-210L88-162Q127-165 154-165Q198-165 198-127Q198-93 154-93L112-93L112 1L153 1L153-49Q212-49 238-65Q264-81 264-127Z"  horiz-adv-x="351" vert-adv-y="1000"  />

      
      <glyph glyph-name="uni0164" unicode="&#x0164;" d="M13 623L13 692L513 692L513 623L302 623L302 0L226 0L226 623L13 623M231 791L97 926L181 926L264 846L346 926L430 926L296 791L231 791Z"  horiz-adv-x="526" vert-adv-y="1000"  />

      
      <glyph glyph-name="uni0165" unicode="&#x0165;" d="M331 432L173 432L173 199Q173 113 185 86.50Q197 60 245 60L334 65L338 0Q272-11 237-11Q158-11 128 27.50Q98 66 98 172L98 432L27 432L27 500L98 500L98 653L173 653L173 500L331 500L331 432M442 696L442 462L370 462L370 696L442 696Z"  horiz-adv-x="432" vert-adv-y="1000"  />

      
      <glyph glyph-name="uni0166" unicode="&#x0166;" d="M15 623L15 692L515 692L515 623L304 623L304 366L468 366L468 300L304 300L304 0L228 0L228 300L65 300L65 366L228 366L228 623L15 623Z"  horiz-adv-x="529" vert-adv-y="1000"  />

      
      <glyph glyph-name="uni0167" unicode="&#x0167;" d="M333 432L175 432L175 312L309 312L309 253L175 253L175 199Q175 113 187 86.50Q199 60 247 60L336 65L340 0Q274-11 239-11Q160-11 130 27.50Q100 66 100 172L100 253L45 253L45 312L100 312L100 432L29 432L29 500L100 500L100 653L175 653L175 500L333 500L333 432Z"  horiz-adv-x="354" vert-adv-y="1000"  />

      
      <glyph glyph-name="uni0168" unicode="&#x0168;" d="M157 208Q157 58 319 58Q403 58 445.50 93.50Q488 129 488 208L488 692L564 692L564 210Q564 94 502.50 42Q441-10 321-10Q201-10 140.50 42Q80 94 80 210L80 692L157 692L157 208M402 803Q381 803 319 830Q257 857 244 857Q222 857 183 821L170 809L153 865Q172 887 198 905Q224 923 247 923Q270 923 331 896Q392 869 402 869Q422 869 460 904L472 915L490 859Q443 803 402 803Z"  horiz-adv-x="644" vert-adv-y="1000"  />

      
      <glyph glyph-name="uni0169" unicode="&#x0169;" d="M459 500L459 0L384 0L384 35L363 24Q342 12 305 1Q268-10 236-10Q134-10 100.50 43Q67 96 67 239Q67 239 67 500L142 500L142 240Q142 131 161 94Q180 57 250.50 57Q321 57 384 94L384 500L459 500M335 612Q314 612 262.50 635.50Q211 659 198 659Q175 659 136 629L123 619L105 667Q155 719 196 719Q217 719 269 696Q321 673 332 673Q354 673 392 702L404 711L421 663Q375 612 335 612Z"  horiz-adv-x="531" vert-adv-y="1000"  />

      
      </font>
</defs>
</svg>
